<svg xmlns="http://www.w3.org/2000/svg" width="37.334" height="28" viewBox="0 0 37.334 28">
  <path id="Path_10" data-name="Path 10" d="M104.423,211.244a3.485,3.485,0,0,1,3.5-3.5h8.167v-4.52a2.654,2.654,0,0,1,.874-2.043,3.093,3.093,0,0,1,2.043-.839,2.673,2.673,0,0,1,2.041.839L131.4,211.609a3.522,3.522,0,0,1,0,4.959l-10.353,10.427a2.661,2.661,0,0,1-2.041.839,3.077,3.077,0,0,1-2.043-.839,2.651,2.651,0,0,1-.874-2.041v-4.52h-8.167a3.485,3.485,0,0,1-3.5-3.5Zm2.334,0v5.687a1.172,1.172,0,0,0,.328.8,1.074,1.074,0,0,0,.837.364h10.5v6.854a.516.516,0,0,0,.364.51.562.562,0,0,0,.657-.146l10.28-10.425a1.064,1.064,0,0,0,0-1.606l-10.28-10.427a.567.567,0,0,0-.657-.146.518.518,0,0,0-.364.512v6.852h-10.5a1.124,1.124,0,0,0-1.165,1.167Zm35,13.344a3.485,3.485,0,0,1-3.5,3.5h-9.627a.871.871,0,0,1-.874-.874v-.583a.871.871,0,0,1,.874-.874h9.627a1.124,1.124,0,0,0,1.165-1.167v-21a1.124,1.124,0,0,0-1.165-1.167h-9.627a.871.871,0,0,1-.874-.874v-.583a.871.871,0,0,1,.874-.876h9.627a3.485,3.485,0,0,1,3.5,3.5Z" transform="translate(-104.423 -200.088)" fill="#16a0cc"/>
</svg>
