<svg viewBox="0 0 72 72" xmlns="http://www.w3.org/2000/svg" xmlns:xlink="http://www.w3.org/1999/xlink"><linearGradient id="a" gradientUnits="userSpaceOnUse" x1="36" x2="36" y2="72"><stop offset="0" stop-color="#ffc500"/><stop offset="1" stop-color="#ff9100"/></linearGradient><linearGradient id="b" x1="17.36" x2="45.34" xlink:href="#a" y1="36.19" y2="36.19"/><linearGradient id="c" x1="45.17" x2="63.51" xlink:href="#a" y1="36.19" y2="36.19"/><linearGradient id="d" x1="17.46" x2="45.64" xlink:href="#a" y1="47.66" y2="47.66"/><linearGradient id="e" x1="8.37" x2="22.67" xlink:href="#a" y1="46.77" y2="46.77"/><linearGradient id="f" x1="45.45" x2="62.62" xlink:href="#a" y1="48.78" y2="48.78"/><linearGradient id="g" x1="45.48" x2="62.21" xlink:href="#a" y1="23.65" y2="23.65"/><linearGradient id="h" x1="25.68" x2="49.77" xlink:href="#a" y1="55.67" y2="55.67"/><linearGradient id="i" x1="8.37" x2="22.97" xlink:href="#a" y1="24.04" y2="24.04"/><linearGradient id="j" x1="17.48" x2="45.61" xlink:href="#a" y1="24.81" y2="24.81"/><linearGradient id="k" x1="25.12" x2="49.84" xlink:href="#a" y1="16.7" y2="16.7"/><rect fill="url(#a)" height="72" rx="36" width="72"/><g fill="#fff" stroke-miterlimit="10"><path d="m44.84 51.33v-30.28l-26.48 15.23z" stroke="url(#b)"/><path d="m45.67 51.14 17.08-14.86-17.08-15z" opacity=".8" stroke="url(#c)"/><path d="m18.21 36.92c1.77 7.58 3.44 14.7 5.12 21.83l21.08-6.93z" opacity=".8" stroke="url(#d)"/><path d="m17.82 37.85c-.2-.87-.53-1.41-1.58-1.37-1.74.08-3.47 0-5.21 0h-1.76l12.73 20.38.17-.12c-.12-.65-.2-1.3-.35-1.94-1.35-5.66-2.69-11.3-4-16.95z" opacity=".45" stroke="url(#e)"/><path d="m46.48 51.32c-.29.26-.62.92-.5 1.15 1.1 2 2.31 4 3.66 6.34l11.91-20.21a4 4 0 0 0 -1.61 1q-6.73 5.83-13.46 11.72z" opacity=".45" stroke="url(#f)"/><path d="m46.27 20.91c5 4.43 10 8.82 15 13.22l.26-.15c-3.94-6.73-7.87-13.47-11.94-20.42-1.3 2.22-2.46 4.13-3.52 6.09a1.33 1.33 0 0 0 .2 1.26z" opacity=".5" stroke="url(#g)"/><path d="m43.93 52.67c-2.16.79-4.36 1.47-6.54 2.2l-11.19 3.74v.23h22.7c-1.15-2-2.23-3.78-3.25-5.61-.43-.79-.91-.86-1.72-.56z" opacity=".55" stroke="url(#h)"/><path d="m14 35.93c1.67 0 2.58 0 3.13-.32.62-.42.76-1.34 1.07-3.3a2.26 2.26 0 0 0 -.13-.44l-.13.09.92-4.13a1.71 1.71 0 0 0 .21-1l.46-2.08.26-.06.57-3.09-.11-.06.38-1.75a2.87 2.87 0 0 0 .55-1.88 11.79 11.79 0 0 1 .56-2.44l-.13-.07.16-.72-6.9 11.89-1.09 1.78h.05l-.83 1.4a.65.65 0 0 0 -.16.18c-1.16 1.91-2.3 3.82-3.61 6z" opacity=".55" stroke="url(#i)"/><path d="m21.83 19-.44.27c.08.23.15.48.23.72l-.46 2.09c-.29 1.19-.88 2.32-.68 3.36l-.42 2h-.05c-.59 2.78-1.15 5.4-1.77 8.29l26.17-15.17c-1.69-.6-3.18-1.13-4.68-1.64-1.69-.58-3.48-1.77-5-1.58l-6-2a37.16 37.16 0 0 0 -5.73-1.85c-.06 0-.15.07-.24.11-.27 1.2-.54 2.41-.78 3.46l.19.21z" opacity=".8" stroke="url(#j)"/><path d="m31.54 15.48a3.32 3.32 0 0 0 1 .34c5.54 1.95 12.46 4.34 12.46 4.34 1.34-2.37 2.59-4.57 3.94-6.92h-16.17a24.18 24.18 0 0 0 -3.2 0c-2.32 0-3.91 0-4 .05s2.6 1.01 5.97 2.19z" opacity=".5" stroke="url(#k)"/></g></svg>