<svg viewBox="0 0 72 72" xmlns="http://www.w3.org/2000/svg" xmlns:xlink="http://www.w3.org/1999/xlink"><linearGradient id="a" gradientUnits="userSpaceOnUse" x1="36" x2="36" y2="72"><stop offset="0" stop-color="#d9d9d9"/><stop offset="1" stop-color="#bfbfbf"/></linearGradient><linearGradient id="b" x1="11.01" x2="42.37" xlink:href="#a" y1="26.47" y2="26.47"/><linearGradient id="c" x1="12.13" x2="42.38" xlink:href="#a" y1="48.34" y2="48.34"/><linearGradient id="d" x1="36.43" x2="60.88" xlink:href="#a" y1="26.91" y2="26.91"/><linearGradient id="e" x1="36.26" x2="59.83" xlink:href="#a" y1="48.4" y2="48.4"/><rect fill="url(#a)" height="72" rx="36" width="72"/><g fill="#fff" stroke-miterlimit="10"><path d="m12.06 35.8c8.12-7.92 16-15.66 24.2-23.59 1.85 9.74 3.65 19.23 5.48 28.91z" stroke="url(#b)"/><path d="m36.3 59.79-23.59-23 .09-.29 28.94 5.2c-1.81 6.02-3.58 11.92-5.44 18.09z" stroke="url(#c)"/><path d="m42.32 41.12c-1.79-9.45-3.57-18.83-5.35-28.2l.18-.16 22.79 23.24z" stroke="url(#d)"/><path d="m59.19 37.22-21.95 21.54c.34-1.19.68-2.48 1.06-3.75 1.22-4.08 2.5-8.13 3.65-12.22.31-1.09 1.06-1.33 1.91-1.58l14.14-4.09a8.59 8.59 0 0 1 1-.2z" opacity=".5" stroke="url(#e)"/></g></svg>