<svg viewBox="0 0 90 90" xmlns="http://www.w3.org/2000/svg" xmlns:xlink="http://www.w3.org/1999/xlink"><linearGradient id="a" gradientUnits="userSpaceOnUse" x1="45" x2="45" y1="9" y2="81"><stop offset="0" stop-color="#ff6d01"/><stop offset="1" stop-color="#e52b00"/></linearGradient><linearGradient id="b" x1="45" x2="45" xlink:href="#a" y1="13.18" y2="76.82"/><linearGradient id="c" x1="67.5" x2="67.5" xlink:href="#a" y1="0" y2="45"/><linearGradient id="d" gradientTransform="matrix(-1 0 0 -1 1377 -117)" x1="1354.5" x2="1354.5" xlink:href="#a" y1="-207" y2="-162"/><path d="m9 9h72v72h-72z" fill="url(#a)"/><path d="m13.18 13.18h63.64v63.64h-63.64z" fill="url(#b)" transform="matrix(.70710678 .70710678 -.70710678 .70710678 45 -18.64)"/><path d="m45 0v45h45z" fill="url(#c)"/><path d="m45 90v-45h-45z" fill="url(#d)"/><path d="m59 37.33c.53 2.61 1.08 5.18 1.57 7.77a43.13 43.13 0 0 1 1 9.34 9.39 9.39 0 0 1 -1.12 5 16 16 0 0 1 -1.26 1.56 4.06 4.06 0 0 0 -.65.92 31.82 31.82 0 0 1 -3.62 7 14.09 14.09 0 0 1 -5.8 5.13 9 9 0 0 1 -9.62-1.24 23 23 0 0 1 -5.59-6.56 1.41 1.41 0 0 0 -.68-.58 5.67 5.67 0 0 1 -3.75-3.47 25.35 25.35 0 0 1 -1.84-8.56c-.36-5.32-.61-10.64-.9-16a2.29 2.29 0 0 1 0-.41c.56.87 1 1.69 1.58 2.47a10.84 10.84 0 0 0 4.56 3.89c1.67.71 3.27.42 4.14-.78a3.86 3.86 0 0 0 .66-2.73 26.44 26.44 0 0 0 -.66-3.53c-.43-1.72-1.1-3.39-1.39-5.12a14.37 14.37 0 0 1 1.72-9 36.35 36.35 0 0 1 6.17-8.21c.66-.71 1.37-1.37 2.2-2.2-.09.4-.13.63-.18.86a56.16 56.16 0 0 0 -1.42 12.62 19.72 19.72 0 0 0 .8 6.2 9 9 0 0 0 1.25 2.38 1.92 1.92 0 0 0 2.51.6 10.68 10.68 0 0 0 2.75-1.94c1.19-1.21 2.2-2.59 3.27-3.89a.48.48 0 0 1 0 .18q-.12 5.63-.26 11.26a5.2 5.2 0 0 1 -1.31 3.89.45.45 0 0 0 -.1.37 18.37 18.37 0 0 0 .65 3c.44 1.21 1.45 1.33 2.11.22a15.49 15.49 0 0 0 1.63-3.65c.65-2.22 1.05-4.48 1.58-6.79zm-8.48 33.45a7.37 7.37 0 0 0 -.52-10.93 1.19 1.19 0 0 0 -.9-.22 5.47 5.47 0 0 1 -4.87-.63 2 2 0 0 0 -2.51.07c-.26.14-.5.31-.75.47a1.72 1.72 0 0 0 -.91 1.46 5.14 5.14 0 0 1 -1.73 3.45 1.68 1.68 0 0 0 -.46 1 7.38 7.38 0 0 0 12.65 5.3zm-6.16-14a4.18 4.18 0 1 0 0-5.91 4.22 4.22 0 0 0 0 5.94zm8.24 2.35.41.33a4 4 0 0 0 5.81-5.46 4.08 4.08 0 0 0 -5-1.45.73.73 0 0 0 -.51.87 5.45 5.45 0 0 1 -1.18 4 .77.77 0 0 0 0 1.12zm-20.46 3.87a3.62 3.62 0 0 0 5.1 0 3.67 3.67 0 0 0 0-5.11 3.61 3.61 0 0 0 -5.1 5.11zm16.17-20.2a2.5 2.5 0 1 0 -.06-3.51 2.56 2.56 0 0 0 .06 3.46zm-11.93 8.1a2.25 2.25 0 0 0 0 3.18 2.25 2.25 0 0 0 3.18-3.17 2.24 2.24 0 0 0 -3.18-.06z" fill="#fff"/></svg>