<svg viewBox="0 0 72 72" xmlns="http://www.w3.org/2000/svg" xmlns:xlink="http://www.w3.org/1999/xlink"><linearGradient id="a" gradientUnits="userSpaceOnUse" x1="36" x2="36" y2="72"><stop offset="0" stop-color="#351c75"/><stop offset="1" stop-color="#0a003a"/></linearGradient><linearGradient id="b" x2="36" xlink:href="#a" y1="72" y2="0"/><linearGradient id="c" gradientUnits="userSpaceOnUse" x1="36" x2="36" y2="72"><stop offset="0" stop-color="#351c75"/><stop offset="1" stop-color="#0a0032"/></linearGradient><path d="m0 0h72v72h-72z" fill="url(#a)"/><path d="m0 72 72-72v72z" fill="url(#b)"/><path d="m0 0 72 72v-72z" fill="url(#c)"/><g fill="#fff"><path d="m36 47.3a19.15 19.15 0 1 1 19.16-19.13 19.16 19.16 0 0 1 -19.16 19.13zm-8-34 .46-.07a3.13 3.13 0 0 1 3.77 3.6c-.32 3.52-4.14 7.23-7.66 7.44a3 3 0 0 1 -3.37-3c0-.45 0-.9 0-1.43a16.92 16.92 0 0 0 .52 17.8c3.5 5.34 9.71 7.81 13.6 7.5a5.51 5.51 0 0 1 -3.78-4.73 10 10 0 0 1 .2-3.73c1.53-5.68 5.19-9.68 10.38-12.18a13.68 13.68 0 0 1 3.82-1.13c2.76-.4 5.19.24 6.92 2.7a16.39 16.39 0 0 0 -8.7-12.85c-5.32-2.9-10.75-2.78-16.16.03z"/><path d="m55.54 49.16a7.17 7.17 0 0 1 2.62 2.89c.81 1.71.29 3.56-1.39 5.15a17.2 17.2 0 0 1 -6.39 3.58 45.45 45.45 0 0 1 -18.05 2.09 36.43 36.43 0 0 1 -12.28-2.71 21.92 21.92 0 0 1 -3.95-2.23c-3.46-2.51-3.5-5.66-.21-8.37.18-.15.38-.28.57-.41 3.08 4.3 7.74 5.53 12.52 6.36a40.18 40.18 0 0 0 17.45-.74 17.13 17.13 0 0 0 7.5-3.77 22.72 22.72 0 0 0 1.61-1.84z" opacity=".8"/><path d="m20.78 43.12a21.54 21.54 0 0 0 30.41.05.37.37 0 0 1 .15 0c3.38 2.27 3.41 4.84 0 7.13a20.41 20.41 0 0 1 -8.19 3 39.09 39.09 0 0 1 -17-.6 16.36 16.36 0 0 1 -6.15-2.84c-2.5-2-2.48-4.15 0-6.17.23-.2.49-.36.78-.57z" opacity=".8"/></g></svg>