<svg viewBox="0 0 90 90" xmlns="http://www.w3.org/2000/svg" xmlns:xlink="http://www.w3.org/1999/xlink"><linearGradient id="a" gradientUnits="userSpaceOnUse" x1="45" x2="45" y1="9" y2="81"><stop offset="0" stop-color="#ffd26a"/><stop offset="1" stop-color="#fcecca"/></linearGradient><linearGradient id="b" x1="45" x2="45" xlink:href="#a" y1="13.18" y2="76.82"/><linearGradient id="c" gradientUnits="userSpaceOnUse" x1="67.5" x2="67.5" y2="45"><stop offset="0" stop-color="#fff9e9"/><stop offset="1" stop-color="#fcecca"/></linearGradient><linearGradient id="d" gradientTransform="matrix(-1 0 0 -1 1377 -765)" x1="1354.5" x2="1354.5" xlink:href="#c" y1="-855" y2="-810"/><path d="m9 9h72v72h-72z" fill="url(#a)"/><path d="m13.18 13.18h63.64v63.64h-63.64z" fill="url(#b)" transform="matrix(.70710678 .70710678 -.70710678 .70710678 45 -18.64)"/><path d="m45 0v45h45z" fill="url(#c)"/><path d="m45 90v-45h-45z" fill="url(#d)"/><path d="m81 54 9-9-9-9v-27h-27l-9-9-9 9h-27v27l-9 9 9 9v27h27l9 9 9-9h27z" fill="#fbb03b" opacity=".3"/><path d="m49.15 71.89h-11.82l2.67-16.89-4.61-2c-.08.12-.24.35-.39.59q-5.57 8.85-11.11 17.72a1.22 1.22 0 0 1 -1.24.68c-1.51 0-3 0-4.59 0 0-2 0-3.83 0-5.7 0-.27.32-.57.55-.79l14.32-13.82c.21-.19.44-.37.62-.52-.62-1.07-1.17-2.07-1.78-3a1 1 0 0 0 -.72-.27c-2.4 0-4.79 0-7.19 0a1.66 1.66 0 0 1 -.79-.14c.25-.1.49-.22.74-.31 2.16-.83 4.32-1.67 6.48-2.48a.72.72 0 0 0 .58-.83c-.05-.88 0-1.76 0-2.73l-5.88-1c-2.12-.36-4.25-.71-6.38-1.1-.2 0-.51-.3-.52-.47 0-2.21 0-4.41 0-6.75l13.67 6.47 3.24-4.24-13.1-16.31h4.33c.21 0 .44.38.6.62l8.82 14.28c.14.22.27.44.42.66 1-.42 1.88-.9 2.85-1.22s2-.44 3-.66v-13.62h4.48l-2.4 13.71c1.1.36 2.2.73 3.31 1.05.16 0 .46-.17.62-.33a31.14 31.14 0 0 1 2.79-2.56l-1.56 3.91 2 1.81 20.84-17.1v.85 7.65a1 1 0 0 1 -.65 1.08c-5.94 3-11.86 6.06-17.78 9.09-.28.14-.55.3-.83.45.36 1 .68 2 1.09 2.91.08.19.48.32.75.34 2.83.24 5.66.46 8.48.68a2.73 2.73 0 0 1 .42.1c-.43.15-.68.25-.93.32-2.59.8-5.17 1.6-7.76 2.36a1 1 0 0 0 -.82 1c-.17.93-.44 1.85-.69 2.86l5.54 2.13 12.52 4.81c.38.15.66.26.66.79v11.32.5l-20.69-16.59-2.14 1.9 2.17 5.26-.14.1c-.49-.54-1-1.09-1.45-1.63l-.68-.76c-.57-.64-1.07-1.68-1.74-1.81-.83-.16-1.8.45-2.79.75z" fill="#fff"/></svg>