<svg width="150" height="150" style="display: block;">
    <symbol
            id="icon-common"
            viewBox="0 0 72 72"
            xmlns="http://www.w3.org/2000/svg"
            xmlns:xlink="http://www.w3.org/1999/xlink"
    >
        <linearGradient id="commona" gradientUnits="userSpaceOnUse" x1="36" x2="36" y2="72">
            <stop offset="0" stop-color="#d9d9d9"/>
            <stop offset="1" stop-color="#bfbfbf"/>
        </linearGradient>
        <linearGradient id="commonb" x1="11.01" x2="42.37" xlink:href="#commona" y1="26.47" y2="26.47"/>
        <linearGradient id="commonc" x1="12.13" x2="42.38" xlink:href="#commona" y1="48.34" y2="48.34"/>
        <linearGradient id="commond" x1="36.43" x2="60.88" xlink:href="#commona" y1="26.91" y2="26.91"/>
        <linearGradient id="commone" x1="36.26" x2="59.83" xlink:href="#commona" y1="48.4" y2="48.4"/>
        <rect fill="url(#commona)" height="72" rx="36" width="72"/>
        <g fill="#fff" stroke-miterlimit="10">
            <path d="m12.06 35.8c8.12-7.92 16-15.66 24.2-23.59 1.85 9.74 3.65 19.23 5.48 28.91z"
                  stroke="url(#commonb)"/>
            <path d="m36.3 59.79-23.59-23 .09-.29 28.94 5.2c-1.81 6.02-3.58 11.92-5.44 18.09z" stroke="url(#commonc)"/>
            <path d="m42.32 41.12c-1.79-9.45-3.57-18.83-5.35-28.2l.18-.16 22.79 23.24z" stroke="url(#commond)"/>
            <path
                    d="m59.19 37.22-21.95 21.54c.34-1.19.68-2.48 1.06-3.75 1.22-4.08 2.5-8.13 3.65-12.22.31-1.09 1.06-1.33 1.91-1.58l14.14-4.09a8.59 8.59 0 0 1 1-.2z"
                    opacity=".5"
                    stroke="url(#commone)"
            />
        </g>
    </symbol>
    <symbol
            id="icon-dark"
            viewBox="0 0 90 90"
            xmlns="http://www.w3.org/2000/svg"
            xmlns:xlink="http://www.w3.org/1999/xlink"
    >
        <linearGradient id="darka" gradientUnits="userSpaceOnUse" x1="45" x2="45" y1="9" y2="81">
            <stop offset="0" stop-color="#4d485e"/>
            <stop offset="1" stop-color="#302c44"/>
        </linearGradient>
        <linearGradient id="darkb" x1="45" x2="45" xlink:href="#darka" y1="13.18" y2="76.82"/>
        <linearGradient id="darkc" x1="67.5" x2="67.5" xlink:href="#darka" y1="0" y2="45"/>
        <linearGradient
                id="darkd"
                gradientTransform="matrix(-1 0 0 -1 1377 -549)"
                x1="1354.5"
                x2="1354.5"
                xlink:href="#darka"
                y1="-639"
                y2="-594"
        />
        <path d="m9 9h72v72h-72z" fill="url(#darka)"/>
        <path
                d="m13.18 13.18h63.64v63.64h-63.64z"
                fill="url(#darkb)"
                transform="matrix(.70710678 .70710678 -.70710678 .70710678 45 -18.64)"
        />
        <path d="m45 0v45h45z" fill="url(#darkc)"/>
        <path d="m45 90v-45h-45z" fill="url(#darkd)"/>
        <g fill="#fff">
            <path d="m31.27 28.72c-.86 9.37 1.54 17.59 7.5 24.65s13.92 10.43 22.95 11.56h-18a18.11 18.11 0 0 1 -10.54-3.44 19.79 19.79 0 0 1 -8.18-12.36 17.12 17.12 0 0 1 .29-7.83 30.64 30.64 0 0 1 5.54-12.07c.1-.12.17-.23.44-.51z"/>
            <path d="m47.34 20.73a21.33 21.33 0 0 0 -5.92 7.27 23.44 23.44 0 0 0 -2.5 11.63 25.12 25.12 0 0 0 2.09 9c.76 1.77 1.36 3.6 2.1 5.38.3.74.77 1.41 1.09 2.2-.34-.27-.69-.52-1-.81a30.34 30.34 0 0 1 -10.12-18.96 29.55 29.55 0 0 1 .25-9.44 1.45 1.45 0 0 1 .36-.78 21.17 21.17 0 0 1 13.31-5.52 2.2 2.2 0 0 1 .34.03z"/>
            <path d="m64.77 28.49c-.75-.17-1.46-.35-2.17-.46a17.12 17.12 0 0 0 -14.4 4.15 31.44 31.44 0 0 0 -3.2 3.43 20.71 20.71 0 0 0 -2.11 2.68c-.76 1.25-1.35 2.61-2 3.82a19.5 19.5 0 0 1 -.22-5.27 21.23 21.23 0 0 1 3.93-10.76 18.28 18.28 0 0 1 5.37-5 1 1 0 0 1 .65-.16c5.42 1.05 10.26 3.21 14 7.39.07.02.09.08.15.18z"/>
            <path d="m49 33.84a15.26 15.26 0 0 1 4.77-3.07 15 15 0 0 1 11.89-.05 3.13 3.13 0 0 1 1.77 1.71 22.38 22.38 0 0 1 1.7 6.71 26.76 26.76 0 0 1 -.23 7.86c0 .08 0 .16-.07.29-3.41-9.29-10.18-13.46-19.83-13.45z"/>
            <path d="m57.41 37.05a15.88 15.88 0 0 1 4.31 2.62 16.27 16.27 0 0 1 5.82 10.7 3 3 0 0 1 -.3 1.66 12.83 12.83 0 0 1 -10.09 7.2 7.78 7.78 0 0 1 -1 .05h-.33c5.95-5.34 6.59-15.07 1.59-22.23z"/>
            <path d="m49.49 50.27a6.38 6.38 0 0 0 4.75 1.22 9.54 9.54 0 0 1 -4.4 2.08 20.65 20.65 0 0 1 -2.37.15.72.72 0 0 1 -.77-.52 9.18 9.18 0 0 1 .08-7.72 5.76 5.76 0 0 1 2.76-3.18 3.26 3.26 0 0 1 4.77 2.84c.17 2.75-1.79 4.86-4.82 5.13z"/>
            <path d="m58.93 48.73a12.7 12.7 0 0 1 -2.47 7.11 27.26 27.26 0 0 1 -2.53 2.63 1.12 1.12 0 0 1 -1.39.2 11.39 11.39 0 0 1 -3.88-2.57 6.41 6.41 0 0 1 -.45-.55c4.88-.31 8.26-2.82 10.72-6.82z"/>
            <path d="m35.45 64.93h-3.82a3.94 3.94 0 0 0 -.77 0c-1.43.28-2.24-.34-2.91-1.59a29.43 29.43 0 0 1 -3-8.3 1.38 1.38 0 0 1 0-.49 23.17 23.17 0 0 0 10.5 10.38z"/>
        </g>
    </symbol>
    <symbol
            id="icon-earth"
            viewBox="0 0 90 90"
            xmlns="http://www.w3.org/2000/svg"
            xmlns:xlink="http://www.w3.org/1999/xlink"
    >
        <linearGradient id="eartha" gradientUnits="userSpaceOnUse" x1="45" x2="45" y1="9" y2="81">
            <stop offset="0" stop-color="#38761d"/>
            <stop offset="1" stop-color="#004f11"/>
        </linearGradient>
        <linearGradient id="earthb" gradientUnits="userSpaceOnUse" x1="45" x2="45" y1="13.18" y2="76.81">
            <stop offset="0" stop-color="#38761d"/>
            <stop offset="1" stop-color="#2a6011"/>
        </linearGradient>
        <linearGradient id="earthc" x2="45" xlink:href="#eartha" y1="45" y2="90"/>
        <linearGradient id="earthd" x1="67.5" x2="67.5" xlink:href="#eartha" y1="0" y2="45"/>
        <linearGradient
                id="earthe"
                gradientTransform="matrix(-1 0 0 -1 1377 99)"
                gradientUnits="userSpaceOnUse"
                x1="1354.5"
                x2="1354.5"
                y1="9"
                y2="54"
        >
            <stop offset="0" stop-color="#38761d" stop-opacity=".1"/>
            <stop offset="1" stop-color="#004f11"/>
        </linearGradient>
        <path d="m9 9h72v72h-72z" fill="url(#eartha)"/>
        <path
                d="m13.18 13.18h63.64v63.64h-63.64z"
                fill="url(#earthb)"
                transform="matrix(.70710678 .70710678 -.70710678 .70710678 45 -18.64)"
        />
        <path d="m0 45h90l-45 45z" fill="url(#earthc)"/>
        <path d="m45 0v45h45z" fill="url(#earthd)" opacity=".5"/>
        <path d="m45 90v-45h-45z" fill="url(#earthe)" opacity=".5"/>
        <g fill="#fff">
            <path d="m48.54 70.28-7.28-21.75-1.94 8.09-15.72-15.2 3.15-3.61 4.19 3.74-2-8.79-6.46 2.87c.21-.8.37-1.43.54-2.07.84-3.16 1.69-6.32 2.51-9.49a1.12 1.12 0 0 1 .87-.92c5.55-1.69 11.1-3.42 16.65-5.1a1.64 1.64 0 0 1 1.13.13q8.68 4.76 17.35 9.56a2.11 2.11 0 0 1 .79.78q4.47 7.8 8.88 15.62a1.66 1.66 0 0 1 .16 1.07q-2.36 10.79-4.81 21.49c-.06.26-.32.63-.53.67-5.8.99-11.61 1.94-17.48 2.91zm14.68-15.35-.91-.31c-3.26-1.06-6.53-2.1-9.78-3.18a2.29 2.29 0 0 1 -1.07-.77q-5.79-7.89-11.54-15.82c-.19-.26-.39-.51-.72-.94v6.49a1.1 1.1 0 0 0 .31.59q5.85 6.78 11.71 13.54a1.16 1.16 0 0 0 .76.38c3.7.03 7.39.02 11.24.02zm-29.62-19.3h.16c0-.32 0-.64.05-1 .09-1.94.19-3.89.24-5.83a2.92 2.92 0 0 1 .62-1.76c.82-1.12 1.59-2.27 2.38-3.4l-.11-.11-6.24 2.64z"/>
            <path d="m42.43 69.15-15.09-16.51.08-.09c.19.11.38.22.56.34l13.41 8.68a1.23 1.23 0 0 1 .66 1c.16 2.17.36 4.33.54 6.5z"/>
        </g>
    </symbol>
    <symbol
            id="icon-empire"
            viewBox="0 0 72 72"
            xmlns="http://www.w3.org/2000/svg"
            xmlns:xlink="http://www.w3.org/1999/xlink"
    >
        <linearGradient id="empirea" gradientUnits="userSpaceOnUse" x1="36" x2="36" y2="72">
            <stop offset="0" stop-color="#6b7f91"/>
            <stop offset="1" stop-color="#2c4472"/>
        </linearGradient>
        <linearGradient id="empireb" gradientUnits="userSpaceOnUse" x1="36" x2="36" y1="21.09" y2="72">
            <stop offset="0" stop-color="#6b7f91"/>
            <stop offset="1" stop-color="#476072"/>
        </linearGradient>
        <linearGradient id="empirec" gradientUnits="userSpaceOnUse" x1="10.54" x2="10.54" y2="72">
            <stop offset="0" stop-color="#6b7f91"/>
            <stop offset="1" stop-color="#334a72"/>
        </linearGradient>
        <linearGradient id="empired" x1="25.46" x2="25.46" xlink:href="#empirec" y2="21.09"/>
        <linearGradient id="empiree" x1="61.46" x2="61.46" xlink:href="#empirec" y1="21.09"/>
        <path d="m21.09 0-21.09 21.09v29.82l21.09 21.09h29.82l21.09-21.09v-29.82l-21.09-21.09z" fill="url(#empirea)"/>
        <path d="m0 50.91 72-29.82v29.82l-21.09 21.09h-29.82z" fill="url(#empireb)"/>
        <path d="m21.09 72-21.09-21.09v-29.82l21.09-21.09" fill="url(#empirec)"/>
        <path d="m0 21.09 50.91-21.09h-29.82z" fill="url(#empired)"/>
        <path d="m72 21.09-21.09 50.91 21.09-21.09z" fill="url(#empiree)"/>
        <g fill="#fff">
            <path d="m18 28.5c2.7-.53 5.35-.89 7.91-1.61 3.23-.91 6.38-2.09 9.56-3.2a1.64 1.64 0 0 1 1.42 0 44.28 44.28 0 0 0 16.11 4.67l.8.09a16.78 16.78 0 0 0 .2 10.46c-1.38.46-2.71 1-4.07 1.34a52.31 52.31 0 0 1 -20 1.75 39.34 39.34 0 0 1 -11.18-2.72c-.65-.27-.83-.53-.69-1.27a24 24 0 0 0 0-9.28c-.06-.09-.06-.19-.06-.23zm16.84-1.5v13.39h1.86v-13.39zm6 1.19v10.63h1.88v-10.68zm-12.24 0v10.63h1.87v-10.68zm-5.94 1.51v8.3h1.9v-8.3zm26 8.36v-8.34h-1.86v8.34z"/>
            <path
                    d="m52.66 26.44c-2.07-.4-3.95-.7-5.8-1.13a42.9 42.9 0 0 1 -9.86-3.76 1.46 1.46 0 0 0 -1.42-.05 59.93 59.93 0 0 1 -15.15 4.5l-.57.08a.86.86 0 0 1 -.27-.05 22 22 0 0 1 2.18-6.03 18.11 18.11 0 0 1 7.06-7.55 13.83 13.83 0 0 1 15.37.55c4.69 3.13 7.15 7.79 8.46 13.44z"
                    opacity=".8"
            />
            <path d="m54 56.91c-6.71-.87-12.75.37-18 4.7-5-4.69-11.06-5.92-17.64-5.4.34-1.65 3.37-6 5-7.54 3.37 3.5 7.39 5.7 12.33 5.81s9.08-1.88 12.63-5.36a32.17 32.17 0 0 1 5.68 7.79z"/>
            <path
                    d="m27.81 43.75a57.12 57.12 0 0 0 16.19-.16c-.56 1.91-1.1 3.74-1.65 5.56 0 .12-.07.23-.1.35-.59 2-.58 2-2.55 2.53a13.62 13.62 0 0 1 -9.3-.73 1.13 1.13 0 0 1 -.56-.58c-.68-2.2-1.33-4.42-2-6.62a2.06 2.06 0 0 1 -.03-.35z"
                    opacity=".8"
            />
            <path
                    d="m44.2 49.91c.57-1.9 1.17-3.64 1.58-5.42a1.85 1.85 0 0 1 1.82-1.62 30.37 30.37 0 0 0 3-.74c-.45 1.94-3.6 6.09-6.4 7.78z"
                    opacity=".8"
            />
            <path
                    d="m27.36 49.38a17.75 17.75 0 0 1 -5.86-7c1.38.32 2.62.61 3.85.92a.55.55 0 0 1 .31.34c.58 1.94 1.14 3.84 1.7 5.74z"
                    opacity=".8"
            />
        </g>
    </symbol>
    <symbol
            id="icon-epic"
            viewBox="0 0 72 72"
            xmlns="http://www.w3.org/2000/svg"
            xmlns:xlink="http://www.w3.org/1999/xlink"
    >
        <linearGradient id="epica" gradientUnits="userSpaceOnUse" x1="36" x2="36" y2="72">
            <stop offset=".01" stop-color="#a335ee"/>
            <stop offset="1" stop-color="#7b15cc"/>
        </linearGradient>
        <linearGradient id="epicb" x1="20.57" x2="46.66" xlink:href="#epica" y1="31.39" y2="31.39"/>
        <linearGradient id="epicc" x1="24.97" x2="52.98" xlink:href="#epica" y1="49.37" y2="49.37"/>
        <linearGradient id="epicd" x1="43.78" x2="58.26" xlink:href="#epica" y1="36.99" y2="36.99"/>
        <linearGradient id="epice" x1="13.68" x2="29.38" xlink:href="#epica" y1="43.4" y2="43.4"/>
        <linearGradient id="epicf" x1="31.53" x2="55" xlink:href="#epica" y1="19.89" y2="19.89"/>
        <linearGradient id="epicg" x1="13.52" x2="32.76" xlink:href="#epica" y1="23.3" y2="23.3"/>
        <rect fill="url(#epica)" height="72" rx="36" width="72"/>
        <g fill="#fff" stroke-miterlimit="10">
            <path
                    d="m32.54 19.33a.92.92 0 0 0 -1.38.3c-3.29 4-6.61 8-10 12.05 2.54 3.75 5.05 7.41 7.51 11.11a1.57 1.57 0 0 0 2.11.72q5.77-1.68 11.62-3.08c.86-.2 1.2-.52 1.35-1.31.78-4 1.6-8 2.36-12a1.11 1.11 0 0 0 -.42-.94c-4.35-2.33-8.76-4.57-13.15-6.85z"
                    stroke="url(#epicb)"
            />
            <path
                    d="m43 40.88c-3.82.95-7.62 1.92-11.42 2.94-.77.2-1.89.45-2.13 1-1.45 3.18-2.61 6.41-3.87 9.62.11.09.16.15.23.17 4.51 1.11 9 2.23 13.55 3.3a1.41 1.41 0 0 0 1-.33q3.52-2.58 7.04-5.13c1.58-1.17 3.13-2.37 4.81-3.64-2.79-2.69-5.47-5.28-8.21-7.81a1.26 1.26 0 0 0 -1-.12z"
                    opacity=".5"
                    stroke="url(#epicc)"
            />
            <path
                    d="m57.68 38.18c-.29-1.28-.64-2.54-1-3.82-.67-2.73-1.31-5.46-2-8.18a1.14 1.14 0 0 0 -.87-.66c-2.05.22-4.09.56-6.14.8-.74.09-1 .44-1.11 1.14-.74 3.9-1.56 7.79-2.28 11.7a2.06 2.06 0 0 0 .37 1.6c2.55 2.56 5.18 5.05 7.78 7.55.09-.06.18-.09.21-.14 1.67-3 3.35-5.92 5-8.89a1.71 1.71 0 0 0 .04-1.1z"
                    opacity=".75"
                    stroke="url(#epicd)"
            />
            <path
                    d="m28.49 43.25c-2.43-3.54-4.86-7.08-7.33-10.6a1.4 1.4 0 0 0 -1.06-.49c-1.9.21-3.79.5-5.86.79.13.88.21 1.62.34 2.36.62 3.55 1.21 7.11 1.9 10.65a3.8 3.8 0 0 0 1 1.88c1.39 1.34 2.89 2.59 4.37 3.85 1 .86 2 1.69 3.15 2.62 1.27-3.2 2.41-6.23 3.68-9.22a1.71 1.71 0 0 0 -.19-1.84z"
                    stroke="url(#epice)"
            />
            <path
                    d="m32.69 18.83c3.83 1.92 7.63 3.91 11.44 5.86.86.44 1.78 1.16 2.65 1.12 2.37-.1 4.72-.52 7.26-.85a10.62 10.62 0 0 0 -.68-.83c-1.29-1.29-2.58-2.58-3.9-3.83-1.55-1.47-2.83-3.32-5.23-3.54a13.1 13.1 0 0 1 -1.76-.37l-9.66-2.31c-.27 1.25-.49 2.35-.73 3.45a1 1 0 0 0 .61 1.3z"
                    stroke="url(#epicf)"
            />
            <path
                    d="m19.7 31.58a2.12 2.12 0 0 0 1.68-.91q4.62-5.67 9.25-11.22c1.19-1.42 1.15-3.14 1.48-5a4.22 4.22 0 0 0 -.69.28l-7.1 4.88c-1.58 1.1-3.4 1.92-4.32 3.79a23.44 23.44 0 0 1 -1.29 2.09c-1.36 2.18-2.72 4.35-4.22 6.77 1-.11 1.71-.17 2.43-.27a26.8 26.8 0 0 1 2.78-.41z"
                    stroke="url(#epicg)"
            />
        </g>
    </symbol>
    <symbol
            id="icon-fire"
            viewBox="0 0 90 90"
            xmlns="http://www.w3.org/2000/svg"
            xmlns:xlink="http://www.w3.org/1999/xlink"
    >
        <linearGradient id="firea" gradientUnits="userSpaceOnUse" x1="45" x2="45" y1="9" y2="81">
            <stop offset="0" stop-color="#ff6d01"/>
            <stop offset="1" stop-color="#e52b00"/>
        </linearGradient>
        <linearGradient id="fireb" x1="45" x2="45" xlink:href="#firea" y1="13.18" y2="76.82"/>
        <linearGradient id="firec" x1="67.5" x2="67.5" xlink:href="#firea" y1="0" y2="45"/>
        <linearGradient
                id="fired"
                gradientTransform="matrix(-1 0 0 -1 1377 -117)"
                x1="1354.5"
                x2="1354.5"
                xlink:href="#firea"
                y1="-207"
                y2="-162"
        />
        <path d="m9 9h72v72h-72z" fill="url(#firea)"/>
        <path
                d="m13.18 13.18h63.64v63.64h-63.64z"
                fill="url(#fireb)"
                transform="matrix(.70710678 .70710678 -.70710678 .70710678 45 -18.64)"
        />
        <path d="m45 0v45h45z" fill="url(#firec)"/>
        <path d="m45 90v-45h-45z" fill="url(#fired)"/>
        <path
                d="m59 37.33c.53 2.61 1.08 5.18 1.57 7.77a43.13 43.13 0 0 1 1 9.34 9.39 9.39 0 0 1 -1.12 5 16 16 0 0 1 -1.26 1.56 4.06 4.06 0 0 0 -.65.92 31.82 31.82 0 0 1 -3.62 7 14.09 14.09 0 0 1 -5.8 5.13 9 9 0 0 1 -9.62-1.24 23 23 0 0 1 -5.59-6.56 1.41 1.41 0 0 0 -.68-.58 5.67 5.67 0 0 1 -3.75-3.47 25.35 25.35 0 0 1 -1.84-8.56c-.36-5.32-.61-10.64-.9-16a2.29 2.29 0 0 1 0-.41c.56.87 1 1.69 1.58 2.47a10.84 10.84 0 0 0 4.56 3.89c1.67.71 3.27.42 4.14-.78a3.86 3.86 0 0 0 .66-2.73 26.44 26.44 0 0 0 -.66-3.53c-.43-1.72-1.1-3.39-1.39-5.12a14.37 14.37 0 0 1 1.72-9 36.35 36.35 0 0 1 6.17-8.21c.66-.71 1.37-1.37 2.2-2.2-.09.4-.13.63-.18.86a56.16 56.16 0 0 0 -1.42 12.62 19.72 19.72 0 0 0 .8 6.2 9 9 0 0 0 1.25 2.38 1.92 1.92 0 0 0 2.51.6 10.68 10.68 0 0 0 2.75-1.94c1.19-1.21 2.2-2.59 3.27-3.89a.48.48 0 0 1 0 .18q-.12 5.63-.26 11.26a5.2 5.2 0 0 1 -1.31 3.89.45.45 0 0 0 -.1.37 18.37 18.37 0 0 0 .65 3c.44 1.21 1.45 1.33 2.11.22a15.49 15.49 0 0 0 1.63-3.65c.65-2.22 1.05-4.48 1.58-6.79zm-8.48 33.45a7.37 7.37 0 0 0 -.52-10.93 1.19 1.19 0 0 0 -.9-.22 5.47 5.47 0 0 1 -4.87-.63 2 2 0 0 0 -2.51.07c-.26.14-.5.31-.75.47a1.72 1.72 0 0 0 -.91 1.46 5.14 5.14 0 0 1 -1.73 3.45 1.68 1.68 0 0 0 -.46 1 7.38 7.38 0 0 0 12.65 5.3zm-6.16-14a4.18 4.18 0 1 0 0-5.91 4.22 4.22 0 0 0 0 5.94zm8.24 2.35.41.33a4 4 0 0 0 5.81-5.46 4.08 4.08 0 0 0 -5-1.45.73.73 0 0 0 -.51.87 5.45 5.45 0 0 1 -1.18 4 .77.77 0 0 0 0 1.12zm-20.46 3.87a3.62 3.62 0 0 0 5.1 0 3.67 3.67 0 0 0 0-5.11 3.61 3.61 0 0 0 -5.1 5.11zm16.17-20.2a2.5 2.5 0 1 0 -.06-3.51 2.56 2.56 0 0 0 .06 3.46zm-11.93 8.1a2.25 2.25 0 0 0 0 3.18 2.25 2.25 0 0 0 3.18-3.17 2.24 2.24 0 0 0 -3.18-.06z"
                fill="#fff"
        />
    </symbol>
    <symbol
            id="icon-glade"
            viewBox="0 0 72 72"
            xmlns="http://www.w3.org/2000/svg"
            xmlns:xlink="http://www.w3.org/1999/xlink"
    >
        <linearGradient id="gladea" gradientUnits="userSpaceOnUse" x1="36" x2="36" y2="72">
            <stop offset="0" stop-color="#6aa84f"/>
            <stop offset="1" stop-color="#407a25"/>
        </linearGradient>
        <linearGradient id="gladeb" gradientUnits="userSpaceOnUse" x1="36" x2="36" y1="21.09" y2="72">
            <stop offset="0" stop-color="#6aa84f"/>
            <stop offset="1" stop-color="#165f25"/>
        </linearGradient>
        <linearGradient id="gladec" x1="10.54" x2="10.54" xlink:href="#gladeb" y1="0"/>
        <linearGradient id="gladed" x1="25.46" x2="25.46" xlink:href="#gladeb" y1="0" y2="21.09"/>
        <linearGradient id="gladee" x1="61.46" x2="61.46" xlink:href="#gladeb" y1="21.09"/>
        <path d="m21.09 0-21.09 21.09v29.82l21.09 21.09h29.82l21.09-21.09v-29.82l-21.09-21.09z" fill="url(#gladea)"/>
        <path d="m0 50.91 72-29.82v29.82l-21.09 21.09h-29.82z" fill="url(#gladeb)"/>
        <path d="m21.09 72-21.09-21.09v-29.82l21.09-21.09" fill="url(#gladec)"/>
        <path d="m0 21.09 50.91-21.09h-29.82z" fill="url(#gladed)"/>
        <path d="m72 21.09-21.09 50.91 21.09-21.09z" fill="url(#gladee)"/>
        <g fill="#fff">
            <path d="m39 62a47.71 47.71 0 0 1 2.91-4.48c2.34-2.91 4.86-5.69 7.25-8.56 1.22-1.46 2.37-3 3.47-4.5a7 7 0 0 0 .68-6.92 22 22 0 0 0 -6.64-9 34.27 34.27 0 0 0 -10.67-5.95 1 1 0 0 0 -.69 0 51 51 0 0 0 -12 8.64 20.11 20.11 0 0 0 -4.17 6.1 7.15 7.15 0 0 0 .33 6.55 58.07 58.07 0 0 0 5.8 8 59.7 59.7 0 0 1 6.11 8.76c.17.33.34.67.5 1a2.41 2.41 0 0 1 .15.42c-.73 0-1.39 0-2.05 0-.11 0-.25-.17-.32-.29-2.57-4.78-6.24-8.76-9.49-13a21.87 21.87 0 0 1 -4.86-14.34 24.53 24.53 0 0 1 3.3-11.16 31.13 31.13 0 0 1 8.87-10.15 15.45 15.45 0 0 1 7.52-3.29 9.66 9.66 0 0 1 6.66 2.17 35.61 35.61 0 0 1 14.34 20.37c1.13 4.25 1 8.52-1.23 12.43a39.89 39.89 0 0 1 -3.88 5.2c-2.36 2.87-4.85 5.64-7.23 8.49a19.52 19.52 0 0 0 -1.92 2.91 1.22 1.22 0 0 1 -1.37.77 9.59 9.59 0 0 0 -1.2 0z"/>
            <path
                    d="m36.54 50.57a10.53 10.53 0 0 1 -7.85-3.57 21.38 21.38 0 0 1 -5.24-11.4 2.17 2.17 0 0 1 .61-2.09 47.27 47.27 0 0 1 10.29-7.95 2.9 2.9 0 0 1 3-.22c4.44 2 8.44 4.55 11.47 8.47a1.92 1.92 0 0 1 .43 1.65 22.44 22.44 0 0 1 -4.25 10.36 11.5 11.5 0 0 1 -7.15 4.62c-.48.08-.99.1-1.31.13zm-11.09-15.89a4.83 4.83 0 0 0 4.42 3.42 4.67 4.67 0 0 0 4-3.42 11.62 11.62 0 0 0 -8.42 0zm22 0a11.6 11.6 0 0 0 -8.46 0 4.67 4.67 0 0 0 4.14 3.41 4.84 4.84 0 0 0 4.3-3.41z"
                    opacity=".8"
            />
        </g>
    </symbol>
    <symbol
            id="icon-horde"
            viewBox="0 0 72 72"
            xmlns="http://www.w3.org/2000/svg"
            xmlns:xlink="http://www.w3.org/1999/xlink"
    >
        <linearGradient id="hordea" gradientUnits="userSpaceOnUse" x1="36" x2="36" y2="72">
            <stop offset="0" stop-color="#c00"/>
            <stop offset="1" stop-color="#9e0707"/>
        </linearGradient>
        <linearGradient id="hordeb" gradientUnits="userSpaceOnUse" x1="36" x2="36" y1="21.09" y2="72">
            <stop offset="0" stop-color="#c00"/>
            <stop offset="1" stop-color="#660707"/>
        </linearGradient>
        <linearGradient id="hordec" x1="10.54" x2="10.54" xlink:href="#hordeb" y1="0"/>
        <linearGradient id="horded" x1="25.46" x2="25.46" xlink:href="#hordeb" y1="0" y2="21.09"/>
        <path d="m21.09 0-21.09 21.09v29.82l21.09 21.09h29.82l21.09-21.09v-29.82l-21.09-21.09z" fill="url(#hordea)"/>
        <path d="m0 50.91 72-29.82v29.82l-21.09 21.09h-29.82z" fill="url(#hordeb)"/>
        <path d="m21.09 72-21.09-21.09v-29.82l21.09-21.09" fill="url(#hordec)"/>
        <path d="m0 21.09 50.91-21.09h-29.82z" fill="url(#horded)"/>
        <g fill="#fff">
            <path d="m53.68 38.11a104.31 104.31 0 0 0 -34.9 0c0-2.08 0-4.15 0-6.21 0-.21.31-.5.54-.6a26.5 26.5 0 0 1 7-2 60.36 60.36 0 0 1 15-.6 37.88 37.88 0 0 1 11 2.26 5.48 5.48 0 0 0 .56.23 1.11 1.11 0 0 1 .85 1.3c-.09 1.82-.05 3.71-.05 5.62z"/>
            <path d="m23 27.77c2.09-4.77 4.86-8.77 10-10.38a10.82 10.82 0 0 1 10.26 2.11 18.82 18.82 0 0 1 5.86 8.19 62.61 62.61 0 0 0 -26.12.08z"/>
            <path d="m41.46 60.58 5.69-21.28c1.05.13 2.08.23 3.1.41.15 0 .32.41.32.63v4.37 12.71c0 .57-.12.84-.73 1-2.72.66-5.45 1.4-8.38 2.16z"/>
            <path d="m21.11 39.83 3.39-.5c1.89 7.05 3.77 14.06 5.69 21.25l-2-.53c-2.17-.57-4.33-1.14-6.51-1.68-.41-.11-.58-.26-.58-.71q0-8.69 0-17.38c-.03-.12-.01-.28.01-.45z"/>
            <path d="m51 27.14-2.23-4.47a12.15 12.15 0 0 0 5.91-10.43c3.2 4.15 2.13 11.98-3.68 14.9z" opacity=".8"/>
            <path d="m21.13 27a10.87 10.87 0 0 1 -3.74-15.54 12.65 12.65 0 0 0 6.09 10.87z" opacity=".8"/>
            <path d="m34.12 38.76h3.36l1.65 10.74h-6.66z" opacity=".8"/>
            <path d="m29.42 39a2.08 2.08 0 0 1 2.21 2 2.23 2.23 0 0 1 -4.44.06 2.07 2.07 0 0 1 2.23-2.06z"
                  opacity=".8"/>
            <path d="m42.2 39a2.07 2.07 0 0 1 2.2 2 2.23 2.23 0 1 1 -2.2-2z" opacity=".8"/>
        </g>
    </symbol>
    <symbol
            id="icon-legendary"
            viewBox="0 0 72 72"
            xmlns="http://www.w3.org/2000/svg"
            xmlns:xlink="http://www.w3.org/1999/xlink"
    >
        <linearGradient id="legendarya" gradientUnits="userSpaceOnUse" x1="36" x2="36" y2="72">
            <stop offset="0" stop-color="#ffc500"/>
            <stop offset="1" stop-color="#ff9100"/>
        </linearGradient>
        <linearGradient id="legendaryb" x1="17.36" x2="45.34" xlink:href="#legendarya" y1="36.19" y2="36.19"/>
        <linearGradient id="legendaryc" x1="45.17" x2="63.51" xlink:href="#legendarya" y1="36.19" y2="36.19"/>
        <linearGradient id="legendaryd" x1="17.46" x2="45.64" xlink:href="#legendarya" y1="47.66" y2="47.66"/>
        <linearGradient id="legendarye" x1="8.37" x2="22.67" xlink:href="#legendarya" y1="46.77" y2="46.77"/>
        <linearGradient id="legendaryf" x1="45.45" x2="62.62" xlink:href="#legendarya" y1="48.78" y2="48.78"/>
        <linearGradient id="legendaryg" x1="45.48" x2="62.21" xlink:href="#legendarya" y1="23.65" y2="23.65"/>
        <linearGradient id="legendaryh" x1="25.68" x2="49.77" xlink:href="#legendarya" y1="55.67" y2="55.67"/>
        <linearGradient id="legendaryi" x1="8.37" x2="22.97" xlink:href="#legendarya" y1="24.04" y2="24.04"/>
        <linearGradient id="legendaryj" x1="17.48" x2="45.61" xlink:href="#legendarya" y1="24.81" y2="24.81"/>
        <linearGradient id="legendaryk" x1="25.12" x2="49.84" xlink:href="#legendarya" y1="16.7" y2="16.7"/>
        <rect fill="url(#legendarya)" height="72" rx="36" width="72"/>
        <g fill="#fff" stroke-miterlimit="10">
            <path d="m44.84 51.33v-30.28l-26.48 15.23z" stroke="url(#legendaryb)"/>
            <path d="m45.67 51.14 17.08-14.86-17.08-15z" opacity=".8" stroke="url(#legendaryc)"/>
            <path d="m18.21 36.92c1.77 7.58 3.44 14.7 5.12 21.83l21.08-6.93z" opacity=".8" stroke="url(#legendaryd)"/>
            <path
                    d="m17.82 37.85c-.2-.87-.53-1.41-1.58-1.37-1.74.08-3.47 0-5.21 0h-1.76l12.73 20.38.17-.12c-.12-.65-.2-1.3-.35-1.94-1.35-5.66-2.69-11.3-4-16.95z"
                    opacity=".45"
                    stroke="url(#legendarye)"
            />
            <path
                    d="m46.48 51.32c-.29.26-.62.92-.5 1.15 1.1 2 2.31 4 3.66 6.34l11.91-20.21a4 4 0 0 0 -1.61 1q-6.73 5.83-13.46 11.72z"
                    opacity=".45"
                    stroke="url(#legendaryf)"
            />
            <path
                    d="m46.27 20.91c5 4.43 10 8.82 15 13.22l.26-.15c-3.94-6.73-7.87-13.47-11.94-20.42-1.3 2.22-2.46 4.13-3.52 6.09a1.33 1.33 0 0 0 .2 1.26z"
                    opacity=".5"
                    stroke="url(#legendaryg)"
            />
            <path
                    d="m43.93 52.67c-2.16.79-4.36 1.47-6.54 2.2l-11.19 3.74v.23h22.7c-1.15-2-2.23-3.78-3.25-5.61-.43-.79-.91-.86-1.72-.56z"
                    opacity=".55"
                    stroke="url(#legendaryh)"
            />
            <path
                    d="m14 35.93c1.67 0 2.58 0 3.13-.32.62-.42.76-1.34 1.07-3.3a2.26 2.26 0 0 0 -.13-.44l-.13.09.92-4.13a1.71 1.71 0 0 0 .21-1l.46-2.08.26-.06.57-3.09-.11-.06.38-1.75a2.87 2.87 0 0 0 .55-1.88 11.79 11.79 0 0 1 .56-2.44l-.13-.07.16-.72-6.9 11.89-1.09 1.78h.05l-.83 1.4a.65.65 0 0 0 -.16.18c-1.16 1.91-2.3 3.82-3.61 6z"
                    opacity=".55"
                    stroke="url(#legendaryi)"
            />
            <path
                    d="m21.83 19-.44.27c.08.23.15.48.23.72l-.46 2.09c-.29 1.19-.88 2.32-.68 3.36l-.42 2h-.05c-.59 2.78-1.15 5.4-1.77 8.29l26.17-15.17c-1.69-.6-3.18-1.13-4.68-1.64-1.69-.58-3.48-1.77-5-1.58l-6-2a37.16 37.16 0 0 0 -5.73-1.85c-.06 0-.15.07-.24.11-.27 1.2-.54 2.41-.78 3.46l.19.21z"
                    opacity=".8"
                    stroke="url(#legendaryj)"
            />
            <path
                    d="m31.54 15.48a3.32 3.32 0 0 0 1 .34c5.54 1.95 12.46 4.34 12.46 4.34 1.34-2.37 2.59-4.57 3.94-6.92h-16.17a24.18 24.18 0 0 0 -3.2 0c-2.32 0-3.91 0-4 .05s2.6 1.01 5.97 2.19z"
                    opacity=".5"
                    stroke="url(#legendaryk)"
            />
        </g>
    </symbol>
    <symbol
            id="icon-light"
            viewBox="0 0 90 90"
            xmlns="http://www.w3.org/2000/svg"
            xmlns:xlink="http://www.w3.org/1999/xlink"
    >
        <linearGradient id="lighta" gradientUnits="userSpaceOnUse" x1="45" x2="45" y1="9" y2="81">
            <stop offset="0" stop-color="#ffd26a"/>
            <stop offset="1" stop-color="#fcecca"/>
        </linearGradient>
        <linearGradient id="lightb" x1="45" x2="45" xlink:href="#lighta" y1="13.18" y2="76.82"/>
        <linearGradient id="lightc" gradientUnits="userSpaceOnUse" x1="67.5" x2="67.5" y2="45">
            <stop offset="0" stop-color="#fff9e9"/>
            <stop offset="1" stop-color="#fcecca"/>
        </linearGradient>
        <linearGradient
                id="lightd"
                gradientTransform="matrix(-1 0 0 -1 1377 -765)"
                x1="1354.5"
                x2="1354.5"
                xlink:href="#lightc"
                y1="-855"
                y2="-810"
        />
        <path d="m9 9h72v72h-72z" fill="url(#lighta)"/>
        <path
                d="m13.18 13.18h63.64v63.64h-63.64z"
                fill="url(#lightb)"
                transform="matrix(.70710678 .70710678 -.70710678 .70710678 45 -18.64)"
        />
        <path d="m45 0v45h45z" fill="url(#lightc)"/>
        <path d="m45 90v-45h-45z" fill="url(#lightd)"/>
        <path d="m81 54 9-9-9-9v-27h-27l-9-9-9 9h-27v27l-9 9 9 9v27h27l9 9 9-9h27z" fill="#fbb03b" opacity=".3"/>
        <path
                d="m49.15 71.89h-11.82l2.67-16.89-4.61-2c-.08.12-.24.35-.39.59q-5.57 8.85-11.11 17.72a1.22 1.22 0 0 1 -1.24.68c-1.51 0-3 0-4.59 0 0-2 0-3.83 0-5.7 0-.27.32-.57.55-.79l14.32-13.82c.21-.19.44-.37.62-.52-.62-1.07-1.17-2.07-1.78-3a1 1 0 0 0 -.72-.27c-2.4 0-4.79 0-7.19 0a1.66 1.66 0 0 1 -.79-.14c.25-.1.49-.22.74-.31 2.16-.83 4.32-1.67 6.48-2.48a.72.72 0 0 0 .58-.83c-.05-.88 0-1.76 0-2.73l-5.88-1c-2.12-.36-4.25-.71-6.38-1.1-.2 0-.51-.3-.52-.47 0-2.21 0-4.41 0-6.75l13.67 6.47 3.24-4.24-13.1-16.31h4.33c.21 0 .44.38.6.62l8.82 14.28c.14.22.27.44.42.66 1-.42 1.88-.9 2.85-1.22s2-.44 3-.66v-13.62h4.48l-2.4 13.71c1.1.36 2.2.73 3.31 1.05.16 0 .46-.17.62-.33a31.14 31.14 0 0 1 2.79-2.56l-1.56 3.91 2 1.81 20.84-17.1v.85 7.65a1 1 0 0 1 -.65 1.08c-5.94 3-11.86 6.06-17.78 9.09-.28.14-.55.3-.83.45.36 1 .68 2 1.09 2.91.08.19.48.32.75.34 2.83.24 5.66.46 8.48.68a2.73 2.73 0 0 1 .42.1c-.43.15-.68.25-.93.32-2.59.8-5.17 1.6-7.76 2.36a1 1 0 0 0 -.82 1c-.17.93-.44 1.85-.69 2.86l5.54 2.13 12.52 4.81c.38.15.66.26.66.79v11.32.5l-20.69-16.59-2.14 1.9 2.17 5.26-.14.1c-.49-.54-1-1.09-1.45-1.63l-.68-.76c-.57-.64-1.07-1.68-1.74-1.81-.83-.16-1.8.45-2.79.75z"
                fill="#fff"
        />
    </symbol>
    <symbol
            id="icon-mage"
            viewBox="0 0 72 72"
            xmlns="http://www.w3.org/2000/svg"
            xmlns:xlink="http://www.w3.org/1999/xlink"
    >
        <linearGradient id="magea" gradientUnits="userSpaceOnUse" x1="36" x2="36" y2="72">
            <stop offset="0" stop-color="#351c75"/>
            <stop offset="1" stop-color="#0a003a"/>
        </linearGradient>
        <linearGradient id="mageb" x2="36" xlink:href="#magea" y1="72" y2="0"/>
        <linearGradient id="magec" gradientUnits="userSpaceOnUse" x1="36" x2="36" y2="72">
            <stop offset="0" stop-color="#351c75"/>
            <stop offset="1" stop-color="#0a0032"/>
        </linearGradient>
        <path d="m0 0h72v72h-72z" fill="url(#magea)"/>
        <path d="m0 72 72-72v72z" fill="url(#mageb)"/>
        <path d="m0 0 72 72v-72z" fill="url(#magec)"/>
        <g fill="#fff">
            <path d="m36 47.3a19.15 19.15 0 1 1 19.16-19.13 19.16 19.16 0 0 1 -19.16 19.13zm-8-34 .46-.07a3.13 3.13 0 0 1 3.77 3.6c-.32 3.52-4.14 7.23-7.66 7.44a3 3 0 0 1 -3.37-3c0-.45 0-.9 0-1.43a16.92 16.92 0 0 0 .52 17.8c3.5 5.34 9.71 7.81 13.6 7.5a5.51 5.51 0 0 1 -3.78-4.73 10 10 0 0 1 .2-3.73c1.53-5.68 5.19-9.68 10.38-12.18a13.68 13.68 0 0 1 3.82-1.13c2.76-.4 5.19.24 6.92 2.7a16.39 16.39 0 0 0 -8.7-12.85c-5.32-2.9-10.75-2.78-16.16.03z"/>
            <path
                    d="m55.54 49.16a7.17 7.17 0 0 1 2.62 2.89c.81 1.71.29 3.56-1.39 5.15a17.2 17.2 0 0 1 -6.39 3.58 45.45 45.45 0 0 1 -18.05 2.09 36.43 36.43 0 0 1 -12.28-2.71 21.92 21.92 0 0 1 -3.95-2.23c-3.46-2.51-3.5-5.66-.21-8.37.18-.15.38-.28.57-.41 3.08 4.3 7.74 5.53 12.52 6.36a40.18 40.18 0 0 0 17.45-.74 17.13 17.13 0 0 0 7.5-3.77 22.72 22.72 0 0 0 1.61-1.84z"
                    opacity=".8"
            />
            <path
                    d="m20.78 43.12a21.54 21.54 0 0 0 30.41.05.37.37 0 0 1 .15 0c3.38 2.27 3.41 4.84 0 7.13a20.41 20.41 0 0 1 -8.19 3 39.09 39.09 0 0 1 -17-.6 16.36 16.36 0 0 1 -6.15-2.84c-2.5-2-2.48-4.15 0-6.17.23-.2.49-.36.78-.57z"
                    opacity=".8"
            />
        </g>
    </symbol>
    <symbol
            id="icon-melee"
            viewBox="0 0 72 72"
            xmlns="http://www.w3.org/2000/svg"
            xmlns:xlink="http://www.w3.org/1999/xlink"
    >
        <linearGradient id="meleea" gradientUnits="userSpaceOnUse" x1="36" x2="36" y2="72">
            <stop offset="0" stop-color="#9e5100"/>
            <stop offset="1" stop-color="#823f03"/>
        </linearGradient>
        <linearGradient id="meleeb" gradientUnits="userSpaceOnUse" x1="36" x2="36" y1="72">
            <stop offset="0" stop-color="#9e5100"/>
            <stop offset="1" stop-color="#4d2003"/>
        </linearGradient>
        <linearGradient id="meleec" x2="36" xlink:href="#meleeb" y1="0" y2="72"/>
        <path d="m0 0h72v72h-72z" fill="url(#meleea)"/>
        <path d="m0 72 72-72v72z" fill="url(#meleeb)"/>
        <path d="m0 0 72 72v-72z" fill="url(#meleec)" opacity=".5"/>
        <g fill="#fff">
            <path d="m47.76 35.19a5.13 5.13 0 0 0 5 5.3c-.53.68-1 1.33-1.51 1.94a24.07 24.07 0 0 1 -9.72 7.29 1.49 1.49 0 0 1 -.9.09 58.8 58.8 0 0 1 -18.08-9.26 2.12 2.12 0 0 1 -.84-1.65c-.51-4.9 1.59-11.16 3.81-15.06a5.37 5.37 0 0 0 8.11 2.84 5.39 5.39 0 0 0 2.81 3.6 5.53 5.53 0 0 0 4.47.17 5.39 5.39 0 0 0 6.85 4.74z"/>
            <path
                    d="m18.74 39.53c6.06 6 13.62 9.34 21.57 12.19-.09.4-.19.86-.32 1.3s-.29.9-.46 1.46c-1.39-.33-2.78-.62-4.14-1a45.2 45.2 0 0 1 -13.8-6 14.87 14.87 0 0 1 -4.24-4c-.68-1.05-.69-1.05 0-2.08.4-.57.83-1.13 1.25-1.69a.49.49 0 0 1 .14-.18z"
                    opacity=".8"
            />
            <path
                    d="m38.85 56.26c-.18.4-.36.76-.5 1.13a.58.58 0 0 1 -.71.46c-1.78-.27-3.59-.43-5.34-.83a41.91 41.91 0 0 1 -12.15-4.74 16 16 0 0 1 -5-4.24c-.69-1-1-1.91-.17-2.95a9.43 9.43 0 0 0 .55-.9c3.79 5.1 9.24 7.62 14.94 9.68 2.56.92 5.25 1.49 7.88 2.22a4.72 4.72 0 0 1 .5.17z"
                    opacity=".75"
            />
            <path d="m43.53 23.16a5.46 5.46 0 0 0 -6.15-2.69c.1-.2.16-.36.24-.5 1.26-2.19 2.54-4.38 3.79-6.59a.8.8 0 0 1 .85-.5 7.72 7.72 0 0 1 5.18 2.51.83.83 0 0 1 .12.74c-1.3 2.32-2.64 4.62-4.03 7.03z"/>
            <path d="m50.84 27.7a5.44 5.44 0 0 0 -6.29-2.57l1.64-2.84c.84-1.45 1.68-2.89 2.5-4.35a.6.6 0 0 1 .81-.35 7.74 7.74 0 0 1 4.74 3.41.81.81 0 0 1 .09.67c-1.13 1.96-2.33 3.95-3.49 6.03z"/>
            <path d="m57.36 33.71a5.14 5.14 0 0 0 -6-3c.14-.26.23-.45.33-.63 1.18-2.08 2.38-4.08 3.54-6.18a.69.69 0 0 1 .93-.4 7.86 7.86 0 0 1 4.51 3.5 1 1 0 0 1 .09.8c-1.09 1.93-2.22 3.86-3.4 5.91z"/>
            <path d="m18.12 21.8 5.22 1.78c-.86 2.31-1.78 4.54-2.5 6.84a21.72 21.72 0 0 0 -1 7.08l-.21.06a7.32 7.32 0 0 1 -.89-1.42 27.76 27.76 0 0 1 -.62-14.34z"/>
            <path d="m35.4 20.06a5.45 5.45 0 0 0 -6.07-2.88l.58-1c.85-1.47 1.68-2.95 2.56-4.4a1.23 1.23 0 0 1 .81-.56 7.87 7.87 0 0 1 5.6 1.78.74.74 0 0 1 .18.65c-1.19 2.15-2.41 4.25-3.66 6.41z"/>
            <path d="m38.82 29a3.43 3.43 0 1 1 3.41-3.43 3.47 3.47 0 0 1 -3.41 3.43z"/>
            <path d="m34 22.3a3.42 3.42 0 1 1 -3.42-3.39 3.43 3.43 0 0 1 3.42 3.39z"/>
            <path d="m46.17 33.53a3.39 3.39 0 0 1 0-6.77 3.39 3.39 0 1 1 0 6.77z"/>
            <path d="m52.69 38.56a3.07 3.07 0 1 1 0-6.14 3.07 3.07 0 1 1 0 6.14z"/>
            <path
                    d="m28 57.78a19 19 0 0 1 -11.85-2.78l-.29-.18c-1.18-.74-2-1.65-1.72-3.21a11.62 11.62 0 0 0 0-1.78c3.86 4.07 8.7 6.17 13.86 7.95z"
                    opacity=".5"
            />
            <path d="m19.74 20.41c2.26-3.41 5.26-5.41 8.06-4.3l-1.71 2.89-1.74 3z"/>
            <path d="m14.21 56 3.08 1.78h-3.08z" opacity=".3"/>
        </g>
    </symbol>
    <symbol
            id="icon-ranger"
            viewBox="0 0 72 72"
            xmlns="http://www.w3.org/2000/svg"
            xmlns:xlink="http://www.w3.org/1999/xlink"
    >
        <linearGradient id="rangera" gradientUnits="userSpaceOnUse" x1="36" x2="36" y2="72">
            <stop offset="0" stop-color="#134f5c"/>
            <stop offset="1" stop-color="#0a3c44"/>
        </linearGradient>
        <linearGradient id="rangerb" x2="36" xlink:href="#rangera" y1="72" y2="0"/>
        <path d="m0 0h72v72h-72z" fill="url(#rangera)"/>
        <path d="m0 72 72-72v72z" fill="url(#rangerb)"/>
        <path d="m0 0 72 72v-72z" fill="url(#rangera)"/>
        <g fill="#fff">
            <path d="m41.14 41.15a11.87 11.87 0 0 0 -.9-1 2.27 2.27 0 0 1 -.78-2.55 1 1 0 0 0 -.33-1q-4.44-4.41-8.84-8.84a.91.91 0 0 0 -1-.31 2.9 2.9 0 0 1 -.79.1c-.87 0-1.08-.17-1.27-1l-2.88-12.87c0-.18-.05-.37-.09-.67l3.74 1.07 8.9 2.59c.86.25 1.17.58.88 1.4-.38 1.11.11 1.73.84 2.44 2.82 2.76 5.59 5.58 8.4 8.35.21.21.63.45.84.37 1.75-.63 2.75.37 3.64 1.54z"/>
            <path
                    d="m30.94 31.36 4.55 4.54-23.08 23.1a3.61 3.61 0 0 1 -.06-.5c0-2.68 0-5.36 0-8a1.41 1.41 0 0 1 .35-.89q9-9.07 18.07-18.1z"
                    opacity=".8"
            />
            <path d="m39.07 46.33 16.81-16.81 3.77 3.77-16.79 16.8z"/>
            <path d="m47.62 23.9-1.26 1.2-4.58-4.58 1.38-1.09z" opacity=".8"/>
        </g>
    </symbol>
    <symbol
            id="icon-rare"
            viewBox="0 0 72 72"
            xmlns="http://www.w3.org/2000/svg"
            xmlns:xlink="http://www.w3.org/1999/xlink"
    >
        <linearGradient id="rarea" gradientUnits="userSpaceOnUse" x1="36" x2="36" y2="72">
            <stop offset="0" stop-color="#0070dd"/>
            <stop offset="1" stop-color="#0047af"/>
        </linearGradient>
        <linearGradient id="rareb" x1="22.08" x2="50.75" xlink:href="#rarea" y1="27.36" y2="27.36"/>
        <linearGradient id="rarec" x1="13.62" x2="36.6" xlink:href="#rarea" y1="48.16" y2="48.16"/>
        <linearGradient id="rared" x1="13.77" x2="35.85" xlink:href="#rarea" y1="26.74" y2="26.74"/>
        <linearGradient id="raree" x1="37.61" x2="58.23" xlink:href="#rarea" y1="27.17" y2="27.17"/>
        <linearGradient id="raref" x1="36.03" x2="58.11" xlink:href="#rarea" y1="47.91" y2="47.91"/>
        <rect fill="url(#rarea)" height="72" rx="36" width="72"/>
        <g fill="#fff" stroke-miterlimit="10">
            <path
                    d="m36.22 12.51 13.83 23.62c-2 1-3.84 1.93-5.72 2.85-2.49 1.22-5 2.44-7.48 3.61a1.64 1.64 0 0 1 -1.25 0c-4.13-2-8.24-4.15-12.35-6.24a3.38 3.38 0 0 1 -.52-.42c4.46-7.77 8.93-15.51 13.49-23.42z"
                    stroke="url(#rareb)"
            />
            <path
                    d="m14.5 40.19c2.57-1.26 5-2.48 7.53-3.66a1.06 1.06 0 0 1 .79.15q6.25 3.17 12.48 6.32a1.28 1.28 0 0 1 .62.89c.09 5.06.13 10.12.18 15.18 0 .09-.08.18-.18.38z"
                    opacity=".7"
                    stroke="url(#rarec)"
            />
            <path
                    d="m14.28 39.67c0-2.28 0-4.37 0-6.45a2.13 2.13 0 0 1 .79-1.22q9-8.4 18.06-16.77a5.51 5.51 0 0 1 1.54-1.12c-.64 1.13-1.27 2.27-1.92 3.39q-5.14 8.93-10.31 17.83a2.16 2.16 0 0 1 -.8.84c-2.38 1.15-4.78 2.28-7.36 3.5z"
                    stroke="url(#rared)"
            />
            <path
                    d="m38.41 14.53c1 1 2 1.88 3 2.85 5.13 5 10.25 10 15.41 15a2.57 2.57 0 0 1 .88 2.1c-.06 1.67 0 3.35 0 5.16a4.36 4.36 0 0 1 -.9-.45c-1.6-1.45-3.84-1.63-5.55-2.84a3.36 3.36 0 0 1 -1-.91q-5.91-10-11.76-20.14a5.12 5.12 0 0 1 -.25-.65z"
                    opacity=".5"
                    stroke="url(#raree)"
            />
            <path
                    d="m57.19 39.89a2.68 2.68 0 0 0 -.28.18l-2.28-1.31-.09-.06-3.94-2.24-.4.31a2.5 2.5 0 0 0 -.69.22c-4.13 2-8.29 4-12.42 6.08a1.54 1.54 0 0 0 -.56 1.15v7.92 7.21l.3.06 20.61-19.17z"
                    opacity=".45"
                    stroke="url(#raref)"
            />
        </g>
    </symbol>
    <symbol
            id="icon-water"
            viewBox="0 0 90 90"
            xmlns="http://www.w3.org/2000/svg"
            xmlns:xlink="http://www.w3.org/1999/xlink"
    >
        <linearGradient id="watera" gradientUnits="userSpaceOnUse" x1="45" x2="45" y1="9" y2="81">
            <stop offset="0" stop-color="#83e3f0"/>
            <stop offset="1" stop-color="#12a2c4"/>
        </linearGradient>
        <linearGradient id="waterb" x1="45" x2="45" xlink:href="#watera" y1="13.18" y2="76.82"/>
        <linearGradient id="waterc" x1="67.5" x2="67.5" xlink:href="#watera" y1="0" y2="45"/>
        <linearGradient
                id="waterd"
                gradientTransform="matrix(-1 0 0 -1 1377 -333)"
                x1="1354.5"
                x2="1354.5"
                xlink:href="#watera"
                y1="-423"
                y2="-378"
        />
        <path d="m9 9h72v72h-72z" fill="url(#watera)"/>
        <path
                d="m13.18 13.18h63.64v63.64h-63.64z"
                fill="url(#waterb)"
                transform="matrix(.70710678 .70710678 -.70710678 .70710678 45 -18.64)"
        />
        <path d="m45 0v45h45z" fill="url(#waterc)" opacity=".5"/>
        <path d="m45 90v-45h-45z" fill="url(#waterd)" opacity=".5"/>
        <path
                d="m53.64 49a1.85 1.85 0 0 1 -1.77-2.36 3.69 3.69 0 0 1 4.13-2.8 5.4 5.4 0 0 1 4.54 4.6c.73 4.19-2.31 8.25-7.17 8.93a10.61 10.61 0 0 1 -11.37-7.17 14.14 14.14 0 0 1 5.23-16.37 11.49 11.49 0 0 1 5.06-1.67 17.14 17.14 0 0 1 19.48 14.23c1 6.5-1.39 11.58-6.46 15.54a22.88 22.88 0 0 1 -17.76 4.68 29.66 29.66 0 0 1 -15.17-6.93c-.25-.21-.48-.44-.61-.57a22.39 22.39 0 0 0 3.23-1.57c2.48-1.71 3.72-5.45 2-8.12a4.51 4.51 0 0 0 -6-1.59 3.58 3.58 0 0 0 -1.74 3.68 2.89 2.89 0 0 0 3.05 2.49l.18-1.78c-1.24-.38-1.52-.75-1.3-1.63a1.92 1.92 0 0 1 2.27-1.44 3.08 3.08 0 0 1 2.4 3.56 4.72 4.72 0 0 1 -3.25 3.93 7 7 0 0 1 -5.89-.3 5.33 5.33 0 0 1 -2.56-3.74 46.29 46.29 0 0 1 -1-12.59 24.69 24.69 0 0 1 4.87-13.8 20 20 0 0 1 14.2-8.13 12.56 12.56 0 0 1 6.2.59 4.71 4.71 0 0 1 3.23 3.47 3.9 3.9 0 0 1 -1.25 3.6c0-.1-.07-.15 0-.18.94-2.31-.78-3.78-3.17-3.93a10 10 0 0 0 -6.7 2.24 12.65 12.65 0 0 0 -5.22 8 9.25 9.25 0 0 0 1.62 6.85 26.24 26.24 0 0 0 2.33 2.84 1 1 0 0 1 .27.92c-.84 5.51.46 10.32 4.77 14.06a11.65 11.65 0 0 0 15.56-.36c3.49-3.41 3.68-9.21.41-12.44a6.4 6.4 0 0 0 -8.94-.2c-2.08 2-1.81 5.58.52 6.93 1.79 1 4.1.13 4.38-1.72a1.92 1.92 0 0 0 -1.24-2.12 1.54 1.54 0 0 0 -1.78.62c-.32.53-.22 1.13.42 1.75z"
                fill="#fff"
        />
    </symbol>

    <symbol
            id="icon-hunters"
            viewBox="0 0 72 72"
            xmlns="http://www.w3.org/2000/svg"
            xmlns:xlink="http://www.w3.org/1999/xlink"
    >
        <linearGradient id="huntersa" gradientUnits="userSpaceOnUse" x1="36" x2="36" y2="72">
            <stop offset="0" stop-color="#9e5100"/>
            <stop offset="1" stop-color="#4d2003"/>
        </linearGradient>
        <linearGradient id="huntersb" x2="36" xlink:href="#huntersa" y1="21.09"/>
        <linearGradient id="huntersc" x1="10.54" x2="10.54" xlink:href="#huntersa"/>
        <linearGradient id="huntersd" x1="25.46" x2="25.46" xlink:href="#huntersa" y2="21.09"/>
        <path d="m21.09 0-21.09 21.09v29.82l21.09 21.09h29.82l21.09-21.09v-29.82l-21.09-21.09z" fill="url(#huntersa)"/>
        <path d="m0 50.91 72-29.82v29.82l-21.09 21.09h-29.82z" fill="url(#huntersb)"/>
        <path d="m21.09 72-21.09-21.09v-29.82l21.09-21.09" fill="url(#huntersc)"/>
        <path d="m0 21.09 50.91-21.09h-29.82z" fill="url(#huntersd)"/>
        <g fill="#fff">
            <path d="m50.23 48a5.92 5.92 0 0 1 -4.48 5.59 8.43 8.43 0 0 1 -6.09-.78 23.15 23.15 0 0 0 -2.29-1.13 4.41 4.41 0 0 0 -3.78.31c-.94.5-1.84 1.09-2.8 1.54-3.19 1.49-7.88-.37-9.22-3.61-.92-2.23 0-4.35 2.43-5.42 1.5-.67 3-1.3 4.46-2.08a7.65 7.65 0 0 0 3.29-3.74c.2-.45.42-.89.61-1.34a3.15 3.15 0 0 1 2.85-2c2.26-.19 3.47.41 4.48 2.42a10.22 10.22 0 0 0 4 4.71c1.19.66 2.46 1.17 3.68 1.79 1.69.74 2.81 2.04 2.86 3.74z"/>
            <path d="m19.33 33.54a16.23 16.23 0 0 1 .87-2.9 3.16 3.16 0 0 1 5.42-.53 7.88 7.88 0 0 1 .8 7.72 3.11 3.11 0 0 1 -5.53.34 7.76 7.76 0 0 1 -1.39-4.58z"/>
            <path d="m45.08 34.51a7.31 7.31 0 0 1 1-3.74 3.39 3.39 0 0 1 3.12-1.77 3.09 3.09 0 0 1 2.88 2.18 7.31 7.31 0 0 1 -.89 7.35 3.06 3.06 0 0 1 -5.38-.59 7.45 7.45 0 0 1 -.73-3.43z"/>
            <path d="m27.23 25.74a6 6 0 0 1 .85-3 3.2 3.2 0 0 1 5.46-.25 7.89 7.89 0 0 1 .46 7.7 3.12 3.12 0 0 1 -5.51.13 8.1 8.1 0 0 1 -1.26-4.58z"/>
            <path d="m37.2 26.21a6.7 6.7 0 0 1 .8-3.51 3.28 3.28 0 0 1 3-1.83 3.13 3.13 0 0 1 2.89 2 7.35 7.35 0 0 1 -.28 7.29c-1.4 2.25-4.18 2.09-5.52-.2a7.53 7.53 0 0 1 -.89-3.75z"/>
            <path d="m50.25 19.78c.9 1.67 1.64 3.24 1.42 5.08a1.42 1.42 0 0 1 -1.58 1.41 1.55 1.55 0 0 1 -1.67-1.56c-.08-1.86.8-3.36 1.83-4.93z"/>
            <path d="m20.55 20.08c1.14 1.49 2.15 2.88 2.23 4.71a1.52 1.52 0 0 1 -1.55 1.73 1.48 1.48 0 0 1 -1.71-1.41 8.53 8.53 0 0 1 1.03-5.03z"/>
            <path d="m29.5 12.77a8 8 0 0 1 2.16 4.88 1.46 1.46 0 0 1 -1.49 1.58 1.51 1.51 0 0 1 -1.73-1.23 7.35 7.35 0 0 1 .56-4.17c.15-.33.32-.65.5-1.06z"/>
            <path d="m40.94 12.42a8.28 8.28 0 0 1 1.87 4.75 1.51 1.51 0 0 1 -1.5 1.71 1.54 1.54 0 0 1 -1.75-1.54 8.31 8.31 0 0 1 1.38-4.92z"/>
        </g>
    </symbol>

    <symbol
            id="icon-scouts"
            viewBox="0 0 72 72"
            xmlns="http://www.w3.org/2000/svg"
            xmlns:xlink="http://www.w3.org/1999/xlink"
    >
        <linearGradient id="scoutsa" gradientUnits="userSpaceOnUse" x1="36" x2="36" y2="72">
            <stop offset="0" stop-color="#f7931e"/>
            <stop offset="1" stop-color="#fbb03b"/>
        </linearGradient>
        <linearGradient id="scoutsb" x2="36" xlink:href="#scoutsa" y1="21.09"/>
        <linearGradient id="scoutsc" x1="10.54" x2="10.54" xlink:href="#scoutsa"/>
        <linearGradient id="scoutsd" x1="25.46" x2="25.46" xlink:href="#scoutsa" y2="21.09"/>
        <linearGradient id="scoutse" x1="61.46" x2="61.46" xlink:href="#scoutsa" y1="21.09"/>
        <path d="m21.09 0-21.09 21.09v29.82l21.09 21.09h29.82l21.09-21.09v-29.82l-21.09-21.09z" fill="url(#scoutsa)"/>
        <path d="m0 50.91 72-29.82v29.82l-21.09 21.09h-29.82z" fill="url(#scoutsb)"/>
        <path d="m21.09 72-21.09-21.09v-29.82l21.09-21.09" fill="url(#scoutsc)"/>
        <path d="m0 21.09 50.91-21.09h-29.82z" fill="url(#scoutsd)"/>
        <path d="m72 21.09-21.09 50.91 21.09-21.09z" fill="url(#scoutse)"/>
        <g fill="#fff">
            <path d="m27.41 22c-1.25 1.08-2.42 1.23-3.48.5s-1.32-1.87-.79-3.38a2.6 2.6 0 0 1 -2.28-2c-.17-.64.15-1.12.81-1.53l-1.27-1 .14-.2c1 .57 2.05 1.11 3.05 1.71a88.63 88.63 0 0 1 16.06 12.9c1.72 1.67 3.35 3.43 5 5.15.15.14.27.3.41.45l.14-.12-5.31-7.7.06-.09c.38.32.79.61 1.14 1a112.39 112.39 0 0 1 15.61 18.31 1.47 1.47 0 0 1 .28.69v10.53c-1 0-1.91 0-2.85 0-.18 0-.36-.33-.52-.53s-.3-.41-.45-.61a3.18 3.18 0 0 1 -4.22-1c-.87-1.24-.68-2.54.56-4.17a353.24 353.24 0 0 0 -22.09-28.91z"/>
            <path d="m47.11 57.24h-11.38a5.29 5.29 0 0 1 -4.82-3.51 5.48 5.48 0 0 1 -.06-2.35c.16-.81.89-1.16 1.83-1.21a204 204 0 0 0 -19.68-25.26l.1-.14c.74.4 1.5.78 2.24 1.2a79 79 0 0 1 15.84 12.36 134.5 134.5 0 0 1 15.6 18.42c.09.12.22.25.33.49z"/>
            <path d="m52.22 24.27a1.85 1.85 0 0 1 2.49-.16c.79.62.9 1.49.32 2.72.53.48 1.09 1 1.62 1.45a1 1 0 0 1 .33.64v9.92a1.59 1.59 0 0 1 -.08.25 219.23 219.23 0 0 0 -23.17-26.33l1.59.79 1.68.85a1.45 1.45 0 0 1 1.9-.4 1.34 1.34 0 0 1 .63 1.67z"/>
            <path d="m22.52 40.34a2.54 2.54 0 1 1 -2.47-2.56 2.54 2.54 0 0 1 2.47 2.56z"/>
            <path d="m27.49 51.26a1.87 1.87 0 1 1 1.88-1.83 1.87 1.87 0 0 1 -1.88 1.83z"/>
            <path d="m16.65 37.15a2.5 2.5 0 0 1 -2.14-1.51 1 1 0 0 1 1.14-1.46 2.37 2.37 0 0 1 2 1.4 1 1 0 0 1 -1 1.57z"/>
            <path d="m50.13 18.8a1 1 0 0 1 1.53-1 2.29 2.29 0 0 1 1.34 2.58.92.92 0 0 1 -1.2.62 2.42 2.42 0 0 1 -1.67-2.2z"/>
            <path d="m39 23.16a1 1 0 0 1 -1.21 1 2.23 2.23 0 0 1 -1.79-2.43.88.88 0 0 1 1-.73 2.33 2.33 0 0 1 2 2.16z"/>
            <path d="m17.68 15.73a1.35 1.35 0 0 1 1.32 1.38 1.37 1.37 0 0 1 -1.42 1.29 1.34 1.34 0 0 1 .15-2.67z"/>
        </g>
    </symbol>

    <symbol
            id="icon-workers"
            viewBox="0 0 72 72"
            xmlns="http://www.w3.org/2000/svg"
            xmlns:xlink="http://www.w3.org/1999/xlink"
    >
        <linearGradient id="workersa" gradientUnits="userSpaceOnUse" x1="36" x2="36" y2="72">
            <stop offset="0" stop-color="#134f5c"/>
            <stop offset="1" stop-color="#0a3c44"/>
        </linearGradient>
        <linearGradient id="workersb" x2="36" xlink:href="#workersa" y1="21.09"/>
        <linearGradient id="workersc" x1="10.54" x2="10.54" xlink:href="#workersa"/>
        <linearGradient id="workersd" x1="25.46" x2="25.46" xlink:href="#workersa" y2="21.09"/>
        <linearGradient id="workerse" x1="61.46" x2="61.46" xlink:href="#workersa" y1="21.09"/>
        <path d="m21.09 0-21.09 21.09v29.82l21.09 21.09h29.82l21.09-21.09v-29.82l-21.09-21.09z" fill="url(#workersa)"/>
        <path d="m0 50.91 72-29.82v29.82l-21.09 21.09h-29.82z" fill="url(#workersb)"/>
        <path d="m21.09 72-21.09-21.09v-29.82l21.09-21.09" fill="url(#workersc)"/>
        <path d="m0 21.09 50.91-21.09h-29.82z" fill="url(#workersd)"/>
        <path d="m72 21.09-21.09 50.91 21.09-21.09z" fill="url(#workerse)"/>
        <path
                d="m23.52 18.24c-1.87 1-3.45 2.11-4.12 4.08a4.81 4.81 0 0 0 .7 4.38 3.55 3.55 0 0 1 .67 2 3.8 3.8 0 0 0 2.72 3.67 31.51 31.51 0 0 1 6.79 3.63c.42.27.81.57.65 1.12a1 1 0 0 1 -1.17.73c-1.58-.21-3.17-.45-4.73-.77a7.2 7.2 0 0 1 -1.87-.82 4.25 4.25 0 0 0 -3.68-.26.94.94 0 0 1 -1-.12 6.38 6.38 0 0 1 -2.84-4.68 5.63 5.63 0 0 0 .31 8.64 3.13 3.13 0 0 1 1.19 1.49c.82 2.16 3.23 3 5.65 1.94 1-.44 2.09-.85 3.16-1.2a4.49 4.49 0 0 1 6 4 21.63 21.63 0 0 1 -.12 2.89 26.55 26.55 0 0 1 -2.57 9.04c-.11.26-.24.51-.36.75a24.2 24.2 0 1 1 10.2 1c-.2-1-.47-2.09-.58-3.15a29.63 29.63 0 0 1 .68-11 11.06 11.06 0 0 1 1.22-2.6.94.94 0 0 1 1.34-.34c1.75.82 3.54 1.54 5.27 2.39a4.63 4.63 0 0 0 5.82-1.35 1.87 1.87 0 0 1 .76-.56c1.93-.82 3.51-2 3.9-4.2a6.54 6.54 0 0 0 -1-4.38c-.19-.33-.4-.64-.68-1.1 0 .33-.07.51-.09.7a5.83 5.83 0 0 1 -2.74 4.56c-.29.19-.5.27-.8 0a4.09 4.09 0 0 0 -4.4-.78 23.32 23.32 0 0 1 -3.73 1 3.62 3.62 0 0 1 -3.84-2.2 14.74 14.74 0 0 1 -1.23-11.18 4.1 4.1 0 0 0 -1.22-4.38 1 1 0 0 1 -.38-1c.3-2.63.89-3.84 3-6-3.79-.41-7.25 1.39-7.78 5.72a3.33 3.33 0 0 1 -.82 2 4 4 0 0 0 .31 5.27 22.68 22.68 0 0 1 2.6 3.5 3.32 3.32 0 0 1 .29 2.13c-.2 1.28-1.75 1.61-2.78.64a11.94 11.94 0 0 1 -3.09-5c-.15-.45-.25-.91-.41-1.35a3.72 3.72 0 0 0 -4.28-2.55c-.46.08-.63 0-.79-.42a8.27 8.27 0 0 1 -.28-5.12c.04-.22.08-.42.15-.76z"
                fill="#fff"
        />
    </symbol>
</svg>

