<svg viewBox="0 0 72 72" xmlns="http://www.w3.org/2000/svg" xmlns:xlink="http://www.w3.org/1999/xlink"><linearGradient id="a" gradientUnits="userSpaceOnUse" x1="36" x2="36" y2="72"><stop offset="0" stop-color="#0070dd"/><stop offset="1" stop-color="#0047af"/></linearGradient><linearGradient id="b" x1="22.08" x2="50.75" xlink:href="#a" y1="27.36" y2="27.36"/><linearGradient id="c" x1="13.62" x2="36.6" xlink:href="#a" y1="48.16" y2="48.16"/><linearGradient id="d" x1="13.77" x2="35.85" xlink:href="#a" y1="26.74" y2="26.74"/><linearGradient id="e" x1="37.61" x2="58.23" xlink:href="#a" y1="27.17" y2="27.17"/><linearGradient id="f" x1="36.03" x2="58.11" xlink:href="#a" y1="47.91" y2="47.91"/><rect fill="url(#a)" height="72" rx="36" width="72"/><g fill="#fff" stroke-miterlimit="10"><path d="m36.22 12.51 13.83 23.62c-2 1-3.84 1.93-5.72 2.85-2.49 1.22-5 2.44-7.48 3.61a1.64 1.64 0 0 1 -1.25 0c-4.13-2-8.24-4.15-12.35-6.24a3.38 3.38 0 0 1 -.52-.42c4.46-7.77 8.93-15.51 13.49-23.42z" stroke="url(#b)"/><path d="m14.5 40.19c2.57-1.26 5-2.48 7.53-3.66a1.06 1.06 0 0 1 .79.15q6.25 3.17 12.48 6.32a1.28 1.28 0 0 1 .62.89c.09 5.06.13 10.12.18 15.18 0 .09-.08.18-.18.38z" opacity=".7" stroke="url(#c)"/><path d="m14.28 39.67c0-2.28 0-4.37 0-6.45a2.13 2.13 0 0 1 .79-1.22q9-8.4 18.06-16.77a5.51 5.51 0 0 1 1.54-1.12c-.64 1.13-1.27 2.27-1.92 3.39q-5.14 8.93-10.31 17.83a2.16 2.16 0 0 1 -.8.84c-2.38 1.15-4.78 2.28-7.36 3.5z" stroke="url(#d)"/><path d="m38.41 14.53c1 1 2 1.88 3 2.85 5.13 5 10.25 10 15.41 15a2.57 2.57 0 0 1 .88 2.1c-.06 1.67 0 3.35 0 5.16a4.36 4.36 0 0 1 -.9-.45c-1.6-1.45-3.84-1.63-5.55-2.84a3.36 3.36 0 0 1 -1-.91q-5.91-10-11.76-20.14a5.12 5.12 0 0 1 -.25-.65z" opacity=".5" stroke="url(#e)"/><path d="m57.19 39.89a2.68 2.68 0 0 0 -.28.18l-2.28-1.31-.09-.06-3.94-2.24-.4.31a2.5 2.5 0 0 0 -.69.22c-4.13 2-8.29 4-12.42 6.08a1.54 1.54 0 0 0 -.56 1.15v7.92 7.21l.3.06 20.61-19.17z" opacity=".45" stroke="url(#f)"/></g></svg>