<svg viewBox="0 0 72 72" xmlns="http://www.w3.org/2000/svg" xmlns:xlink="http://www.w3.org/1999/xlink"><linearGradient id="a" gradientUnits="userSpaceOnUse" x1="36" x2="36" y2="72"><stop offset="0" stop-color="#f7931e"/><stop offset="1" stop-color="#fbb03b"/></linearGradient><linearGradient id="b" x2="36" xlink:href="#a" y1="21.09"/><linearGradient id="c" x1="10.54" x2="10.54" xlink:href="#a"/><linearGradient id="d" x1="25.46" x2="25.46" xlink:href="#a" y2="21.09"/><linearGradient id="e" x1="61.46" x2="61.46" xlink:href="#a" y1="21.09"/><path d="m21.09 0-21.09 21.09v29.82l21.09 21.09h29.82l21.09-21.09v-29.82l-21.09-21.09z" fill="url(#a)"/><path d="m0 50.91 72-29.82v29.82l-21.09 21.09h-29.82z" fill="url(#b)"/><path d="m21.09 72-21.09-21.09v-29.82l21.09-21.09" fill="url(#c)"/><path d="m0 21.09 50.91-21.09h-29.82z" fill="url(#d)"/><path d="m72 21.09-21.09 50.91 21.09-21.09z" fill="url(#e)"/><g fill="#fff"><path d="m27.41 22c-1.25 1.08-2.42 1.23-3.48.5s-1.32-1.87-.79-3.38a2.6 2.6 0 0 1 -2.28-2c-.17-.64.15-1.12.81-1.53l-1.27-1 .14-.2c1 .57 2.05 1.11 3.05 1.71a88.63 88.63 0 0 1 16.06 12.9c1.72 1.67 3.35 3.43 5 5.15.15.14.27.3.41.45l.14-.12-5.31-7.7.06-.09c.38.32.79.61 1.14 1a112.39 112.39 0 0 1 15.61 18.31 1.47 1.47 0 0 1 .28.69v10.53c-1 0-1.91 0-2.85 0-.18 0-.36-.33-.52-.53s-.3-.41-.45-.61a3.18 3.18 0 0 1 -4.22-1c-.87-1.24-.68-2.54.56-4.17a353.24 353.24 0 0 0 -22.09-28.91z"/><path d="m47.11 57.24h-11.38a5.29 5.29 0 0 1 -4.82-3.51 5.48 5.48 0 0 1 -.06-2.35c.16-.81.89-1.16 1.83-1.21a204 204 0 0 0 -19.68-25.26l.1-.14c.74.4 1.5.78 2.24 1.2a79 79 0 0 1 15.84 12.36 134.5 134.5 0 0 1 15.6 18.42c.09.12.22.25.33.49z"/><path d="m52.22 24.27a1.85 1.85 0 0 1 2.49-.16c.79.62.9 1.49.32 2.72.53.48 1.09 1 1.62 1.45a1 1 0 0 1 .33.64v9.92a1.59 1.59 0 0 1 -.08.25 219.23 219.23 0 0 0 -23.17-26.33l1.59.79 1.68.85a1.45 1.45 0 0 1 1.9-.4 1.34 1.34 0 0 1 .63 1.67z"/><path d="m22.52 40.34a2.54 2.54 0 1 1 -2.47-2.56 2.54 2.54 0 0 1 2.47 2.56z"/><path d="m27.49 51.26a1.87 1.87 0 1 1 1.88-1.83 1.87 1.87 0 0 1 -1.88 1.83z"/><path d="m16.65 37.15a2.5 2.5 0 0 1 -2.14-1.51 1 1 0 0 1 1.14-1.46 2.37 2.37 0 0 1 2 1.4 1 1 0 0 1 -1 1.57z"/><path d="m50.13 18.8a1 1 0 0 1 1.53-1 2.29 2.29 0 0 1 1.34 2.58.92.92 0 0 1 -1.2.62 2.42 2.42 0 0 1 -1.67-2.2z"/><path d="m39 23.16a1 1 0 0 1 -1.21 1 2.23 2.23 0 0 1 -1.79-2.43.88.88 0 0 1 1-.73 2.33 2.33 0 0 1 2 2.16z"/><path d="m17.68 15.73a1.35 1.35 0 0 1 1.32 1.38 1.37 1.37 0 0 1 -1.42 1.29 1.34 1.34 0 0 1 .15-2.67z"/></g></svg>