<svg viewBox="0 0 90 90" xmlns="http://www.w3.org/2000/svg" xmlns:xlink="http://www.w3.org/1999/xlink"><linearGradient id="a" gradientUnits="userSpaceOnUse" x1="45" x2="45" y1="9" y2="81"><stop offset="0" stop-color="#38761d"/><stop offset="1" stop-color="#004f11"/></linearGradient><linearGradient id="b" gradientUnits="userSpaceOnUse" x1="45" x2="45" y1="13.18" y2="76.81"><stop offset="0" stop-color="#38761d"/><stop offset="1" stop-color="#2a6011"/></linearGradient><linearGradient id="c" x2="45" xlink:href="#a" y1="45" y2="90"/><linearGradient id="d" x1="67.5" x2="67.5" xlink:href="#a" y1="0" y2="45"/><linearGradient id="e" gradientTransform="matrix(-1 0 0 -1 1377 99)" gradientUnits="userSpaceOnUse" x1="1354.5" x2="1354.5" y1="9" y2="54"><stop offset="0" stop-color="#38761d" stop-opacity=".1"/><stop offset="1" stop-color="#004f11"/></linearGradient><path d="m9 9h72v72h-72z" fill="url(#a)"/><path d="m13.18 13.18h63.64v63.64h-63.64z" fill="url(#b)" transform="matrix(.70710678 .70710678 -.70710678 .70710678 45 -18.64)"/><path d="m0 45h90l-45 45z" fill="url(#c)"/><path d="m45 0v45h45z" fill="url(#d)" opacity=".5"/><path d="m45 90v-45h-45z" fill="url(#e)" opacity=".5"/><g fill="#fff"><path d="m48.54 70.28-7.28-21.75-1.94 8.09-15.72-15.2 3.15-3.61 4.19 3.74-2-8.79-6.46 2.87c.21-.8.37-1.43.54-2.07.84-3.16 1.69-6.32 2.51-9.49a1.12 1.12 0 0 1 .87-.92c5.55-1.69 11.1-3.42 16.65-5.1a1.64 1.64 0 0 1 1.13.13q8.68 4.76 17.35 9.56a2.11 2.11 0 0 1 .79.78q4.47 7.8 8.88 15.62a1.66 1.66 0 0 1 .16 1.07q-2.36 10.79-4.81 21.49c-.06.26-.32.63-.53.67-5.8.99-11.61 1.94-17.48 2.91zm14.68-15.35-.91-.31c-3.26-1.06-6.53-2.1-9.78-3.18a2.29 2.29 0 0 1 -1.07-.77q-5.79-7.89-11.54-15.82c-.19-.26-.39-.51-.72-.94v6.49a1.1 1.1 0 0 0 .31.59q5.85 6.78 11.71 13.54a1.16 1.16 0 0 0 .76.38c3.7.03 7.39.02 11.24.02zm-29.62-19.3h.16c0-.32 0-.64.05-1 .09-1.94.19-3.89.24-5.83a2.92 2.92 0 0 1 .62-1.76c.82-1.12 1.59-2.27 2.38-3.4l-.11-.11-6.24 2.64z"/><path d="m42.43 69.15-15.09-16.51.08-.09c.19.11.38.22.56.34l13.41 8.68a1.23 1.23 0 0 1 .66 1c.16 2.17.36 4.33.54 6.5z"/></g></svg>