<svg viewBox="0 0 72 72" xmlns="http://www.w3.org/2000/svg" xmlns:xlink="http://www.w3.org/1999/xlink"><linearGradient id="a" gradientUnits="userSpaceOnUse" x1="36" x2="36" y2="72"><stop offset="0" stop-color="#6aa84f"/><stop offset="1" stop-color="#407a25"/></linearGradient><linearGradient id="b" gradientUnits="userSpaceOnUse" x1="36" x2="36" y1="21.09" y2="72"><stop offset="0" stop-color="#6aa84f"/><stop offset="1" stop-color="#165f25"/></linearGradient><linearGradient id="c" x1="10.54" x2="10.54" xlink:href="#b" y1="0"/><linearGradient id="d" x1="25.46" x2="25.46" xlink:href="#b" y1="0" y2="21.09"/><linearGradient id="e" x1="61.46" x2="61.46" xlink:href="#b" y1="21.09"/><path d="m21.09 0-21.09 21.09v29.82l21.09 21.09h29.82l21.09-21.09v-29.82l-21.09-21.09z" fill="url(#a)"/><path d="m0 50.91 72-29.82v29.82l-21.09 21.09h-29.82z" fill="url(#b)"/><path d="m21.09 72-21.09-21.09v-29.82l21.09-21.09" fill="url(#c)"/><path d="m0 21.09 50.91-21.09h-29.82z" fill="url(#d)"/><path d="m72 21.09-21.09 50.91 21.09-21.09z" fill="url(#e)"/><g fill="#fff"><path d="m39 62a47.71 47.71 0 0 1 2.91-4.48c2.34-2.91 4.86-5.69 7.25-8.56 1.22-1.46 2.37-3 3.47-4.5a7 7 0 0 0 .68-6.92 22 22 0 0 0 -6.64-9 34.27 34.27 0 0 0 -10.67-5.95 1 1 0 0 0 -.69 0 51 51 0 0 0 -12 8.64 20.11 20.11 0 0 0 -4.17 6.1 7.15 7.15 0 0 0 .33 6.55 58.07 58.07 0 0 0 5.8 8 59.7 59.7 0 0 1 6.11 8.76c.17.33.34.67.5 1a2.41 2.41 0 0 1 .15.42c-.73 0-1.39 0-2.05 0-.11 0-.25-.17-.32-.29-2.57-4.78-6.24-8.76-9.49-13a21.87 21.87 0 0 1 -4.86-14.34 24.53 24.53 0 0 1 3.3-11.16 31.13 31.13 0 0 1 8.87-10.15 15.45 15.45 0 0 1 7.52-3.29 9.66 9.66 0 0 1 6.66 2.17 35.61 35.61 0 0 1 14.34 20.37c1.13 4.25 1 8.52-1.23 12.43a39.89 39.89 0 0 1 -3.88 5.2c-2.36 2.87-4.85 5.64-7.23 8.49a19.52 19.52 0 0 0 -1.92 2.91 1.22 1.22 0 0 1 -1.37.77 9.59 9.59 0 0 0 -1.2 0z"/><path d="m36.54 50.57a10.53 10.53 0 0 1 -7.85-3.57 21.38 21.38 0 0 1 -5.24-11.4 2.17 2.17 0 0 1 .61-2.09 47.27 47.27 0 0 1 10.29-7.95 2.9 2.9 0 0 1 3-.22c4.44 2 8.44 4.55 11.47 8.47a1.92 1.92 0 0 1 .43 1.65 22.44 22.44 0 0 1 -4.25 10.36 11.5 11.5 0 0 1 -7.15 4.62c-.48.08-.99.1-1.31.13zm-11.09-15.89a4.83 4.83 0 0 0 4.42 3.42 4.67 4.67 0 0 0 4-3.42 11.62 11.62 0 0 0 -8.42 0zm22 0a11.6 11.6 0 0 0 -8.46 0 4.67 4.67 0 0 0 4.14 3.41 4.84 4.84 0 0 0 4.3-3.41z" opacity=".8"/></g></svg>