<svg viewBox="0 0 72 72" xmlns="http://www.w3.org/2000/svg" xmlns:xlink="http://www.w3.org/1999/xlink"><linearGradient id="a" gradientUnits="userSpaceOnUse" x1="36" x2="36" y2="72"><stop offset="0" stop-color="#c00"/><stop offset="1" stop-color="#9e0707"/></linearGradient><linearGradient id="b" gradientUnits="userSpaceOnUse" x1="36" x2="36" y1="21.09" y2="72"><stop offset="0" stop-color="#c00"/><stop offset="1" stop-color="#660707"/></linearGradient><linearGradient id="c" x1="10.54" x2="10.54" xlink:href="#b" y1="0"/><linearGradient id="d" x1="25.46" x2="25.46" xlink:href="#b" y1="0" y2="21.09"/><path d="m21.09 0-21.09 21.09v29.82l21.09 21.09h29.82l21.09-21.09v-29.82l-21.09-21.09z" fill="url(#a)"/><path d="m0 50.91 72-29.82v29.82l-21.09 21.09h-29.82z" fill="url(#b)"/><path d="m21.09 72-21.09-21.09v-29.82l21.09-21.09" fill="url(#c)"/><path d="m0 21.09 50.91-21.09h-29.82z" fill="url(#d)"/><g fill="#fff"><path d="m53.68 38.11a104.31 104.31 0 0 0 -34.9 0c0-2.08 0-4.15 0-6.21 0-.21.31-.5.54-.6a26.5 26.5 0 0 1 7-2 60.36 60.36 0 0 1 15-.6 37.88 37.88 0 0 1 11 2.26 5.48 5.48 0 0 0 .56.23 1.11 1.11 0 0 1 .85 1.3c-.09 1.82-.05 3.71-.05 5.62z"/><path d="m23 27.77c2.09-4.77 4.86-8.77 10-10.38a10.82 10.82 0 0 1 10.26 2.11 18.82 18.82 0 0 1 5.86 8.19 62.61 62.61 0 0 0 -26.12.08z"/><path d="m41.46 60.58 5.69-21.28c1.05.13 2.08.23 3.1.41.15 0 .32.41.32.63v4.37 12.71c0 .57-.12.84-.73 1-2.72.66-5.45 1.4-8.38 2.16z"/><path d="m21.11 39.83 3.39-.5c1.89 7.05 3.77 14.06 5.69 21.25l-2-.53c-2.17-.57-4.33-1.14-6.51-1.68-.41-.11-.58-.26-.58-.71q0-8.69 0-17.38c-.03-.12-.01-.28.01-.45z"/><path d="m51 27.14-2.23-4.47a12.15 12.15 0 0 0 5.91-10.43c3.2 4.15 2.13 11.98-3.68 14.9z" opacity=".8"/><path d="m21.13 27a10.87 10.87 0 0 1 -3.74-15.54 12.65 12.65 0 0 0 6.09 10.87z" opacity=".8"/><path d="m34.12 38.76h3.36l1.65 10.74h-6.66z" opacity=".8"/><path d="m29.42 39a2.08 2.08 0 0 1 2.21 2 2.23 2.23 0 0 1 -4.44.06 2.07 2.07 0 0 1 2.23-2.06z" opacity=".8"/><path d="m42.2 39a2.07 2.07 0 0 1 2.2 2 2.23 2.23 0 1 1 -2.2-2z" opacity=".8"/></g></svg>