<svg viewBox="0 0 72 72" xmlns="http://www.w3.org/2000/svg" xmlns:xlink="http://www.w3.org/1999/xlink"><linearGradient id="a" gradientUnits="userSpaceOnUse" x1="36" x2="36" y2="72"><stop offset="0" stop-color="#9e5100"/><stop offset="1" stop-color="#823f03"/></linearGradient><linearGradient id="b" gradientUnits="userSpaceOnUse" x1="36" x2="36" y1="72"><stop offset="0" stop-color="#9e5100"/><stop offset="1" stop-color="#4d2003"/></linearGradient><linearGradient id="c" x2="36" xlink:href="#b" y1="0" y2="72"/><path d="m0 0h72v72h-72z" fill="url(#a)"/><path d="m0 72 72-72v72z" fill="url(#b)"/><path d="m0 0 72 72v-72z" fill="url(#c)" opacity=".5"/><g fill="#fff"><path d="m47.76 35.19a5.13 5.13 0 0 0 5 5.3c-.53.68-1 1.33-1.51 1.94a24.07 24.07 0 0 1 -9.72 7.29 1.49 1.49 0 0 1 -.9.09 58.8 58.8 0 0 1 -18.08-9.26 2.12 2.12 0 0 1 -.84-1.65c-.51-4.9 1.59-11.16 3.81-15.06a5.37 5.37 0 0 0 8.11 2.84 5.39 5.39 0 0 0 2.81 3.6 5.53 5.53 0 0 0 4.47.17 5.39 5.39 0 0 0 6.85 4.74z"/><path d="m18.74 39.53c6.06 6 13.62 9.34 21.57 12.19-.09.4-.19.86-.32 1.3s-.29.9-.46 1.46c-1.39-.33-2.78-.62-4.14-1a45.2 45.2 0 0 1 -13.8-6 14.87 14.87 0 0 1 -4.24-4c-.68-1.05-.69-1.05 0-2.08.4-.57.83-1.13 1.25-1.69a.49.49 0 0 1 .14-.18z" opacity=".8"/><path d="m38.85 56.26c-.18.4-.36.76-.5 1.13a.58.58 0 0 1 -.71.46c-1.78-.27-3.59-.43-5.34-.83a41.91 41.91 0 0 1 -12.15-4.74 16 16 0 0 1 -5-4.24c-.69-1-1-1.91-.17-2.95a9.43 9.43 0 0 0 .55-.9c3.79 5.1 9.24 7.62 14.94 9.68 2.56.92 5.25 1.49 7.88 2.22a4.72 4.72 0 0 1 .5.17z" opacity=".75"/><path d="m43.53 23.16a5.46 5.46 0 0 0 -6.15-2.69c.1-.2.16-.36.24-.5 1.26-2.19 2.54-4.38 3.79-6.59a.8.8 0 0 1 .85-.5 7.72 7.72 0 0 1 5.18 2.51.83.83 0 0 1 .12.74c-1.3 2.32-2.64 4.62-4.03 7.03z"/><path d="m50.84 27.7a5.44 5.44 0 0 0 -6.29-2.57l1.64-2.84c.84-1.45 1.68-2.89 2.5-4.35a.6.6 0 0 1 .81-.35 7.74 7.74 0 0 1 4.74 3.41.81.81 0 0 1 .09.67c-1.13 1.96-2.33 3.95-3.49 6.03z"/><path d="m57.36 33.71a5.14 5.14 0 0 0 -6-3c.14-.26.23-.45.33-.63 1.18-2.08 2.38-4.08 3.54-6.18a.69.69 0 0 1 .93-.4 7.86 7.86 0 0 1 4.51 3.5 1 1 0 0 1 .09.8c-1.09 1.93-2.22 3.86-3.4 5.91z"/><path d="m18.12 21.8 5.22 1.78c-.86 2.31-1.78 4.54-2.5 6.84a21.72 21.72 0 0 0 -1 7.08l-.21.06a7.32 7.32 0 0 1 -.89-1.42 27.76 27.76 0 0 1 -.62-14.34z"/><path d="m35.4 20.06a5.45 5.45 0 0 0 -6.07-2.88l.58-1c.85-1.47 1.68-2.95 2.56-4.4a1.23 1.23 0 0 1 .81-.56 7.87 7.87 0 0 1 5.6 1.78.74.74 0 0 1 .18.65c-1.19 2.15-2.41 4.25-3.66 6.41z"/><path d="m38.82 29a3.43 3.43 0 1 1 3.41-3.43 3.47 3.47 0 0 1 -3.41 3.43z"/><path d="m34 22.3a3.42 3.42 0 1 1 -3.42-3.39 3.43 3.43 0 0 1 3.42 3.39z"/><path d="m46.17 33.53a3.39 3.39 0 0 1 0-6.77 3.39 3.39 0 1 1 0 6.77z"/><path d="m52.69 38.56a3.07 3.07 0 1 1 0-6.14 3.07 3.07 0 1 1 0 6.14z"/><path d="m28 57.78a19 19 0 0 1 -11.85-2.78l-.29-.18c-1.18-.74-2-1.65-1.72-3.21a11.62 11.62 0 0 0 0-1.78c3.86 4.07 8.7 6.17 13.86 7.95z" opacity=".5"/><path d="m19.74 20.41c2.26-3.41 5.26-5.41 8.06-4.3l-1.71 2.89-1.74 3z"/><path d="m14.21 56 3.08 1.78h-3.08z" opacity=".3"/></g></svg>