<svg viewBox="0 0 72 72" xmlns="http://www.w3.org/2000/svg" xmlns:xlink="http://www.w3.org/1999/xlink"><linearGradient id="a" gradientUnits="userSpaceOnUse" x1="36" x2="36" y2="72"><stop offset="0" stop-color="#134f5c"/><stop offset="1" stop-color="#0a3c44"/></linearGradient><linearGradient id="b" x2="36" xlink:href="#a" y1="72" y2="0"/><path d="m0 0h72v72h-72z" fill="url(#a)"/><path d="m0 72 72-72v72z" fill="url(#b)"/><path d="m0 0 72 72v-72z" fill="url(#a)"/><g fill="#fff"><path d="m41.14 41.15a11.87 11.87 0 0 0 -.9-1 2.27 2.27 0 0 1 -.78-2.55 1 1 0 0 0 -.33-1q-4.44-4.41-8.84-8.84a.91.91 0 0 0 -1-.31 2.9 2.9 0 0 1 -.79.1c-.87 0-1.08-.17-1.27-1l-2.88-12.87c0-.18-.05-.37-.09-.67l3.74 1.07 8.9 2.59c.86.25 1.17.58.88 1.4-.38 1.11.11 1.73.84 2.44 2.82 2.76 5.59 5.58 8.4 8.35.21.21.63.45.84.37 1.75-.63 2.75.37 3.64 1.54z"/><path d="m30.94 31.36 4.55 4.54-23.08 23.1a3.61 3.61 0 0 1 -.06-.5c0-2.68 0-5.36 0-8a1.41 1.41 0 0 1 .35-.89q9-9.07 18.07-18.1z" opacity=".8"/><path d="m39.07 46.33 16.81-16.81 3.77 3.77-16.79 16.8z"/><path d="m47.62 23.9-1.26 1.2-4.58-4.58 1.38-1.09z" opacity=".8"/></g></svg>