<svg width="13" height="13" viewBox="0 0 13 13" fill="none" xmlns="http://www.w3.org/2000/svg">
<path d="M6.18701 0.314044C7.27478 0.306841 8.34401 0.595835 9.28003 1.15004C10.2156 1.69438 10.9937 2.47246 11.538 3.40804C12.0854 4.34692 12.3738 5.41426 12.3738 6.50106C12.3738 7.58785 12.0854 8.65513 11.538 9.59401C10.9937 10.5296 10.2156 11.3077 9.28003 11.852C8.341 12.3995 7.27349 12.6879 6.18652 12.6879C5.09956 12.6879 4.03205 12.3995 3.09302 11.852C2.15741 11.3077 1.37932 10.5296 0.835022 9.59401C0.287644 8.65513 -0.000793457 7.58785 -0.000793457 6.50106C-0.000793457 5.41426 0.287644 4.34692 0.835022 3.40804C1.37936 2.47246 2.15744 1.69438 3.09302 1.15004C4.02931 0.595613 5.0989 0.306609 6.18701 0.314044ZM7.58704 9.39406V8.79402C7.58704 8.71446 7.55541 8.63819 7.49915 8.58193C7.44288 8.52567 7.36661 8.49404 7.28705 8.49404H6.987V5.99904C6.987 5.91948 6.95543 5.84314 6.89917 5.78688C6.84291 5.73062 6.76658 5.69905 6.68701 5.69905H5.08704C5.00747 5.69905 4.93114 5.73062 4.87488 5.78688C4.81862 5.84314 4.78705 5.91948 4.78705 5.99904V6.59902C4.78705 6.67858 4.81862 6.75491 4.87488 6.81117C4.93114 6.86744 5.00747 6.899 5.08704 6.899H5.38702V8.49904H5.08704C5.00747 8.49904 4.93114 8.53061 4.87488 8.58687C4.81862 8.64313 4.78705 8.71946 4.78705 8.79903V9.399C4.78705 9.47857 4.81862 9.5549 4.87488 9.61116C4.93114 9.66742 5.00747 9.69905 5.08704 9.69905H7.28705C7.36661 9.69905 7.44288 9.66742 7.49915 9.61116C7.55541 9.5549 7.58704 9.47857 7.58704 9.399V9.39406ZM6.18701 3.05702C5.94019 3.05311 5.6997 3.13515 5.50671 3.28908C5.31373 3.44301 5.18028 3.65926 5.12921 3.90077C5.07814 4.14229 5.11259 4.39406 5.22675 4.61293C5.3409 4.83181 5.52761 5.00414 5.75488 5.10048C5.98216 5.19683 6.23586 5.21117 6.47253 5.14101C6.70921 5.07085 6.91413 4.9206 7.05219 4.71596C7.19024 4.51132 7.25288 4.26503 7.22931 4.0193C7.20574 3.77358 7.09747 3.5437 6.92303 3.36904C6.82803 3.26977 6.71373 3.19095 6.58716 3.13747C6.46059 3.08399 6.32441 3.05694 6.18701 3.058V3.05702Z" fill="#FF5200"/>
</svg>
