<svg viewBox="0 0 72 72" xmlns="http://www.w3.org/2000/svg" xmlns:xlink="http://www.w3.org/1999/xlink"><linearGradient id="a" gradientUnits="userSpaceOnUse" x1="36" x2="36" y2="72"><stop offset="0" stop-color="#6b7f91"/><stop offset="1" stop-color="#2c4472"/></linearGradient><linearGradient id="b" gradientUnits="userSpaceOnUse" x1="36" x2="36" y1="21.09" y2="72"><stop offset="0" stop-color="#6b7f91"/><stop offset="1" stop-color="#476072"/></linearGradient><linearGradient id="c" gradientUnits="userSpaceOnUse" x1="10.54" x2="10.54" y2="72"><stop offset="0" stop-color="#6b7f91"/><stop offset="1" stop-color="#334a72"/></linearGradient><linearGradient id="d" x1="25.46" x2="25.46" xlink:href="#c" y2="21.09"/><linearGradient id="e" x1="61.46" x2="61.46" xlink:href="#c" y1="21.09"/><path d="m21.09 0-21.09 21.09v29.82l21.09 21.09h29.82l21.09-21.09v-29.82l-21.09-21.09z" fill="url(#a)"/><path d="m0 50.91 72-29.82v29.82l-21.09 21.09h-29.82z" fill="url(#b)"/><path d="m21.09 72-21.09-21.09v-29.82l21.09-21.09" fill="url(#c)"/><path d="m0 21.09 50.91-21.09h-29.82z" fill="url(#d)"/><path d="m72 21.09-21.09 50.91 21.09-21.09z" fill="url(#e)"/><g fill="#fff"><path d="m18 28.5c2.7-.53 5.35-.89 7.91-1.61 3.23-.91 6.38-2.09 9.56-3.2a1.64 1.64 0 0 1 1.42 0 44.28 44.28 0 0 0 16.11 4.67l.8.09a16.78 16.78 0 0 0 .2 10.46c-1.38.46-2.71 1-4.07 1.34a52.31 52.31 0 0 1 -20 1.75 39.34 39.34 0 0 1 -11.18-2.72c-.65-.27-.83-.53-.69-1.27a24 24 0 0 0 0-9.28c-.06-.09-.06-.19-.06-.23zm16.84-1.5v13.39h1.86v-13.39zm6 1.19v10.63h1.88v-10.68zm-12.24 0v10.63h1.87v-10.68zm-5.94 1.51v8.3h1.9v-8.3zm26 8.36v-8.34h-1.86v8.34z"/><path d="m52.66 26.44c-2.07-.4-3.95-.7-5.8-1.13a42.9 42.9 0 0 1 -9.86-3.76 1.46 1.46 0 0 0 -1.42-.05 59.93 59.93 0 0 1 -15.15 4.5l-.57.08a.86.86 0 0 1 -.27-.05 22 22 0 0 1 2.18-6.03 18.11 18.11 0 0 1 7.06-7.55 13.83 13.83 0 0 1 15.37.55c4.69 3.13 7.15 7.79 8.46 13.44z" opacity=".8"/><path d="m54 56.91c-6.71-.87-12.75.37-18 4.7-5-4.69-11.06-5.92-17.64-5.4.34-1.65 3.37-6 5-7.54 3.37 3.5 7.39 5.7 12.33 5.81s9.08-1.88 12.63-5.36a32.17 32.17 0 0 1 5.68 7.79z"/><path d="m27.81 43.75a57.12 57.12 0 0 0 16.19-.16c-.56 1.91-1.1 3.74-1.65 5.56 0 .12-.07.23-.1.35-.59 2-.58 2-2.55 2.53a13.62 13.62 0 0 1 -9.3-.73 1.13 1.13 0 0 1 -.56-.58c-.68-2.2-1.33-4.42-2-6.62a2.06 2.06 0 0 1 -.03-.35z" opacity=".8"/><path d="m44.2 49.91c.57-1.9 1.17-3.64 1.58-5.42a1.85 1.85 0 0 1 1.82-1.62 30.37 30.37 0 0 0 3-.74c-.45 1.94-3.6 6.09-6.4 7.78z" opacity=".8"/><path d="m27.36 49.38a17.75 17.75 0 0 1 -5.86-7c1.38.32 2.62.61 3.85.92a.55.55 0 0 1 .31.34c.58 1.94 1.14 3.84 1.7 5.74z" opacity=".8"/></g></svg>