<svg viewBox="0 0 72 72" xmlns="http://www.w3.org/2000/svg" xmlns:xlink="http://www.w3.org/1999/xlink"><linearGradient id="a" gradientUnits="userSpaceOnUse" x1="36" x2="36" y2="72"><stop offset="0" stop-color="#134f5c"/><stop offset="1" stop-color="#0a3c44"/></linearGradient><linearGradient id="b" x2="36" xlink:href="#a" y1="21.09"/><linearGradient id="c" x1="10.54" x2="10.54" xlink:href="#a"/><linearGradient id="d" x1="25.46" x2="25.46" xlink:href="#a" y2="21.09"/><linearGradient id="e" x1="61.46" x2="61.46" xlink:href="#a" y1="21.09"/><path d="m21.09 0-21.09 21.09v29.82l21.09 21.09h29.82l21.09-21.09v-29.82l-21.09-21.09z" fill="url(#a)"/><path d="m0 50.91 72-29.82v29.82l-21.09 21.09h-29.82z" fill="url(#b)"/><path d="m21.09 72-21.09-21.09v-29.82l21.09-21.09" fill="url(#c)"/><path d="m0 21.09 50.91-21.09h-29.82z" fill="url(#d)"/><path d="m72 21.09-21.09 50.91 21.09-21.09z" fill="url(#e)"/><path d="m23.52 18.24c-1.87 1-3.45 2.11-4.12 4.08a4.81 4.81 0 0 0 .7 4.38 3.55 3.55 0 0 1 .67 2 3.8 3.8 0 0 0 2.72 3.67 31.51 31.51 0 0 1 6.79 3.63c.42.27.81.57.65 1.12a1 1 0 0 1 -1.17.73c-1.58-.21-3.17-.45-4.73-.77a7.2 7.2 0 0 1 -1.87-.82 4.25 4.25 0 0 0 -3.68-.26.94.94 0 0 1 -1-.12 6.38 6.38 0 0 1 -2.84-4.68 5.63 5.63 0 0 0 .31 8.64 3.13 3.13 0 0 1 1.19 1.49c.82 2.16 3.23 3 5.65 1.94 1-.44 2.09-.85 3.16-1.2a4.49 4.49 0 0 1 6 4 21.63 21.63 0 0 1 -.12 2.89 26.55 26.55 0 0 1 -2.57 9.04c-.11.26-.24.51-.36.75a24.2 24.2 0 1 1 10.2 1c-.2-1-.47-2.09-.58-3.15a29.63 29.63 0 0 1 .68-11 11.06 11.06 0 0 1 1.22-2.6.94.94 0 0 1 1.34-.34c1.75.82 3.54 1.54 5.27 2.39a4.63 4.63 0 0 0 5.82-1.35 1.87 1.87 0 0 1 .76-.56c1.93-.82 3.51-2 3.9-4.2a6.54 6.54 0 0 0 -1-4.38c-.19-.33-.4-.64-.68-1.1 0 .33-.07.51-.09.7a5.83 5.83 0 0 1 -2.74 4.56c-.29.19-.5.27-.8 0a4.09 4.09 0 0 0 -4.4-.78 23.32 23.32 0 0 1 -3.73 1 3.62 3.62 0 0 1 -3.84-2.2 14.74 14.74 0 0 1 -1.23-11.18 4.1 4.1 0 0 0 -1.22-4.38 1 1 0 0 1 -.38-1c.3-2.63.89-3.84 3-6-3.79-.41-7.25 1.39-7.78 5.72a3.33 3.33 0 0 1 -.82 2 4 4 0 0 0 .31 5.27 22.68 22.68 0 0 1 2.6 3.5 3.32 3.32 0 0 1 .29 2.13c-.2 1.28-1.75 1.61-2.78.64a11.94 11.94 0 0 1 -3.09-5c-.15-.45-.25-.91-.41-1.35a3.72 3.72 0 0 0 -4.28-2.55c-.46.08-.63 0-.79-.42a8.27 8.27 0 0 1 -.28-5.12c.04-.22.08-.42.15-.76z" fill="#fff"/></svg>