<svg viewBox="0 0 72 72" xmlns="http://www.w3.org/2000/svg" xmlns:xlink="http://www.w3.org/1999/xlink"><linearGradient id="a" gradientUnits="userSpaceOnUse" x1="36" x2="36" y2="72"><stop offset="0" stop-color="#9e5100"/><stop offset="1" stop-color="#4d2003"/></linearGradient><linearGradient id="b" x2="36" xlink:href="#a" y1="21.09"/><linearGradient id="c" x1="10.54" x2="10.54" xlink:href="#a"/><linearGradient id="d" x1="25.46" x2="25.46" xlink:href="#a" y2="21.09"/><path d="m21.09 0-21.09 21.09v29.82l21.09 21.09h29.82l21.09-21.09v-29.82l-21.09-21.09z" fill="url(#a)"/><path d="m0 50.91 72-29.82v29.82l-21.09 21.09h-29.82z" fill="url(#b)"/><path d="m21.09 72-21.09-21.09v-29.82l21.09-21.09" fill="url(#c)"/><path d="m0 21.09 50.91-21.09h-29.82z" fill="url(#d)"/><g fill="#fff"><path d="m50.23 48a5.92 5.92 0 0 1 -4.48 5.59 8.43 8.43 0 0 1 -6.09-.78 23.15 23.15 0 0 0 -2.29-1.13 4.41 4.41 0 0 0 -3.78.31c-.94.5-1.84 1.09-2.8 1.54-3.19 1.49-7.88-.37-9.22-3.61-.92-2.23 0-4.35 2.43-5.42 1.5-.67 3-1.3 4.46-2.08a7.65 7.65 0 0 0 3.29-3.74c.2-.45.42-.89.61-1.34a3.15 3.15 0 0 1 2.85-2c2.26-.19 3.47.41 4.48 2.42a10.22 10.22 0 0 0 4 4.71c1.19.66 2.46 1.17 3.68 1.79 1.69.74 2.81 2.04 2.86 3.74z"/><path d="m19.33 33.54a16.23 16.23 0 0 1 .87-2.9 3.16 3.16 0 0 1 5.42-.53 7.88 7.88 0 0 1 .8 7.72 3.11 3.11 0 0 1 -5.53.34 7.76 7.76 0 0 1 -1.39-4.58z"/><path d="m45.08 34.51a7.31 7.31 0 0 1 1-3.74 3.39 3.39 0 0 1 3.12-1.77 3.09 3.09 0 0 1 2.88 2.18 7.31 7.31 0 0 1 -.89 7.35 3.06 3.06 0 0 1 -5.38-.59 7.45 7.45 0 0 1 -.73-3.43z"/><path d="m27.23 25.74a6 6 0 0 1 .85-3 3.2 3.2 0 0 1 5.46-.25 7.89 7.89 0 0 1 .46 7.7 3.12 3.12 0 0 1 -5.51.13 8.1 8.1 0 0 1 -1.26-4.58z"/><path d="m37.2 26.21a6.7 6.7 0 0 1 .8-3.51 3.28 3.28 0 0 1 3-1.83 3.13 3.13 0 0 1 2.89 2 7.35 7.35 0 0 1 -.28 7.29c-1.4 2.25-4.18 2.09-5.52-.2a7.53 7.53 0 0 1 -.89-3.75z"/><path d="m50.25 19.78c.9 1.67 1.64 3.24 1.42 5.08a1.42 1.42 0 0 1 -1.58 1.41 1.55 1.55 0 0 1 -1.67-1.56c-.08-1.86.8-3.36 1.83-4.93z"/><path d="m20.55 20.08c1.14 1.49 2.15 2.88 2.23 4.71a1.52 1.52 0 0 1 -1.55 1.73 1.48 1.48 0 0 1 -1.71-1.41 8.53 8.53 0 0 1 1.03-5.03z"/><path d="m29.5 12.77a8 8 0 0 1 2.16 4.88 1.46 1.46 0 0 1 -1.49 1.58 1.51 1.51 0 0 1 -1.73-1.23 7.35 7.35 0 0 1 .56-4.17c.15-.33.32-.65.5-1.06z"/><path d="m40.94 12.42a8.28 8.28 0 0 1 1.87 4.75 1.51 1.51 0 0 1 -1.5 1.71 1.54 1.54 0 0 1 -1.75-1.54 8.31 8.31 0 0 1 1.38-4.92z"/></g></svg>