<svg viewBox="0 0 90 90" xmlns="http://www.w3.org/2000/svg" xmlns:xlink="http://www.w3.org/1999/xlink"><linearGradient id="a" gradientUnits="userSpaceOnUse" x1="45" x2="45" y1="9" y2="81"><stop offset="0" stop-color="#83e3f0"/><stop offset="1" stop-color="#12a2c4"/></linearGradient><linearGradient id="b" x1="45" x2="45" xlink:href="#a" y1="13.18" y2="76.82"/><linearGradient id="c" x1="67.5" x2="67.5" xlink:href="#a" y1="0" y2="45"/><linearGradient id="d" gradientTransform="matrix(-1 0 0 -1 1377 -333)" x1="1354.5" x2="1354.5" xlink:href="#a" y1="-423" y2="-378"/><path d="m9 9h72v72h-72z" fill="url(#a)"/><path d="m13.18 13.18h63.64v63.64h-63.64z" fill="url(#b)" transform="matrix(.70710678 .70710678 -.70710678 .70710678 45 -18.64)"/><path d="m45 0v45h45z" fill="url(#c)" opacity=".5"/><path d="m45 90v-45h-45z" fill="url(#d)" opacity=".5"/><path d="m53.64 49a1.85 1.85 0 0 1 -1.77-2.36 3.69 3.69 0 0 1 4.13-2.8 5.4 5.4 0 0 1 4.54 4.6c.73 4.19-2.31 8.25-7.17 8.93a10.61 10.61 0 0 1 -11.37-7.17 14.14 14.14 0 0 1 5.23-16.37 11.49 11.49 0 0 1 5.06-1.67 17.14 17.14 0 0 1 19.48 14.23c1 6.5-1.39 11.58-6.46 15.54a22.88 22.88 0 0 1 -17.76 4.68 29.66 29.66 0 0 1 -15.17-6.93c-.25-.21-.48-.44-.61-.57a22.39 22.39 0 0 0 3.23-1.57c2.48-1.71 3.72-5.45 2-8.12a4.51 4.51 0 0 0 -6-1.59 3.58 3.58 0 0 0 -1.74 3.68 2.89 2.89 0 0 0 3.05 2.49l.18-1.78c-1.24-.38-1.52-.75-1.3-1.63a1.92 1.92 0 0 1 2.27-1.44 3.08 3.08 0 0 1 2.4 3.56 4.72 4.72 0 0 1 -3.25 3.93 7 7 0 0 1 -5.89-.3 5.33 5.33 0 0 1 -2.56-3.74 46.29 46.29 0 0 1 -1-12.59 24.69 24.69 0 0 1 4.87-13.8 20 20 0 0 1 14.2-8.13 12.56 12.56 0 0 1 6.2.59 4.71 4.71 0 0 1 3.23 3.47 3.9 3.9 0 0 1 -1.25 3.6c0-.1-.07-.15 0-.18.94-2.31-.78-3.78-3.17-3.93a10 10 0 0 0 -6.7 2.24 12.65 12.65 0 0 0 -5.22 8 9.25 9.25 0 0 0 1.62 6.85 26.24 26.24 0 0 0 2.33 2.84 1 1 0 0 1 .27.92c-.84 5.51.46 10.32 4.77 14.06a11.65 11.65 0 0 0 15.56-.36c3.49-3.41 3.68-9.21.41-12.44a6.4 6.4 0 0 0 -8.94-.2c-2.08 2-1.81 5.58.52 6.93 1.79 1 4.1.13 4.38-1.72a1.92 1.92 0 0 0 -1.24-2.12 1.54 1.54 0 0 0 -1.78.62c-.32.53-.22 1.13.42 1.75z" fill="#fff"/></svg>