<svg viewBox="0 0 90 90" xmlns="http://www.w3.org/2000/svg" xmlns:xlink="http://www.w3.org/1999/xlink"><linearGradient id="a" gradientUnits="userSpaceOnUse" x1="45" x2="45" y1="9" y2="81"><stop offset="0" stop-color="#4d485e"/><stop offset="1" stop-color="#302c44"/></linearGradient><linearGradient id="b" x1="45" x2="45" xlink:href="#a" y1="13.18" y2="76.82"/><linearGradient id="c" x1="67.5" x2="67.5" xlink:href="#a" y1="0" y2="45"/><linearGradient id="d" gradientTransform="matrix(-1 0 0 -1 1377 -549)" x1="1354.5" x2="1354.5" xlink:href="#a" y1="-639" y2="-594"/><path d="m9 9h72v72h-72z" fill="url(#a)"/><path d="m13.18 13.18h63.64v63.64h-63.64z" fill="url(#b)" transform="matrix(.70710678 .70710678 -.70710678 .70710678 45 -18.64)"/><path d="m45 0v45h45z" fill="url(#c)"/><path d="m45 90v-45h-45z" fill="url(#d)"/><g fill="#fff"><path d="m31.27 28.72c-.86 9.37 1.54 17.59 7.5 24.65s13.92 10.43 22.95 11.56h-18a18.11 18.11 0 0 1 -10.54-3.44 19.79 19.79 0 0 1 -8.18-12.36 17.12 17.12 0 0 1 .29-7.83 30.64 30.64 0 0 1 5.54-12.07c.1-.12.17-.23.44-.51z"/><path d="m47.34 20.73a21.33 21.33 0 0 0 -5.92 7.27 23.44 23.44 0 0 0 -2.5 11.63 25.12 25.12 0 0 0 2.09 9c.76 1.77 1.36 3.6 2.1 5.38.3.74.77 1.41 1.09 2.2-.34-.27-.69-.52-1-.81a30.34 30.34 0 0 1 -10.12-18.96 29.55 29.55 0 0 1 .25-9.44 1.45 1.45 0 0 1 .36-.78 21.17 21.17 0 0 1 13.31-5.52 2.2 2.2 0 0 1 .34.03z"/><path d="m64.77 28.49c-.75-.17-1.46-.35-2.17-.46a17.12 17.12 0 0 0 -14.4 4.15 31.44 31.44 0 0 0 -3.2 3.43 20.71 20.71 0 0 0 -2.11 2.68c-.76 1.25-1.35 2.61-2 3.82a19.5 19.5 0 0 1 -.22-5.27 21.23 21.23 0 0 1 3.93-10.76 18.28 18.28 0 0 1 5.37-5 1 1 0 0 1 .65-.16c5.42 1.05 10.26 3.21 14 7.39.07.02.09.08.15.18z"/><path d="m49 33.84a15.26 15.26 0 0 1 4.77-3.07 15 15 0 0 1 11.89-.05 3.13 3.13 0 0 1 1.77 1.71 22.38 22.38 0 0 1 1.7 6.71 26.76 26.76 0 0 1 -.23 7.86c0 .08 0 .16-.07.29-3.41-9.29-10.18-13.46-19.83-13.45z"/><path d="m57.41 37.05a15.88 15.88 0 0 1 4.31 2.62 16.27 16.27 0 0 1 5.82 10.7 3 3 0 0 1 -.3 1.66 12.83 12.83 0 0 1 -10.09 7.2 7.78 7.78 0 0 1 -1 .05h-.33c5.95-5.34 6.59-15.07 1.59-22.23z"/><path d="m49.49 50.27a6.38 6.38 0 0 0 4.75 1.22 9.54 9.54 0 0 1 -4.4 2.08 20.65 20.65 0 0 1 -2.37.15.72.72 0 0 1 -.77-.52 9.18 9.18 0 0 1 .08-7.72 5.76 5.76 0 0 1 2.76-3.18 3.26 3.26 0 0 1 4.77 2.84c.17 2.75-1.79 4.86-4.82 5.13z"/><path d="m58.93 48.73a12.7 12.7 0 0 1 -2.47 7.11 27.26 27.26 0 0 1 -2.53 2.63 1.12 1.12 0 0 1 -1.39.2 11.39 11.39 0 0 1 -3.88-2.57 6.41 6.41 0 0 1 -.45-.55c4.88-.31 8.26-2.82 10.72-6.82z"/><path d="m35.45 64.93h-3.82a3.94 3.94 0 0 0 -.77 0c-1.43.28-2.24-.34-2.91-1.59a29.43 29.43 0 0 1 -3-8.3 1.38 1.38 0 0 1 0-.49 23.17 23.17 0 0 0 10.5 10.38z"/></g></svg>