<svg viewBox="0 0 72 72" xmlns="http://www.w3.org/2000/svg" xmlns:xlink="http://www.w3.org/1999/xlink"><linearGradient id="a" gradientUnits="userSpaceOnUse" x1="36" x2="36" y2="72"><stop offset=".01" stop-color="#a335ee"/><stop offset="1" stop-color="#7b15cc"/></linearGradient><linearGradient id="b" x1="20.57" x2="46.66" xlink:href="#a" y1="31.39" y2="31.39"/><linearGradient id="c" x1="24.97" x2="52.98" xlink:href="#a" y1="49.37" y2="49.37"/><linearGradient id="d" x1="43.78" x2="58.26" xlink:href="#a" y1="36.99" y2="36.99"/><linearGradient id="e" x1="13.68" x2="29.38" xlink:href="#a" y1="43.4" y2="43.4"/><linearGradient id="f" x1="31.53" x2="55" xlink:href="#a" y1="19.89" y2="19.89"/><linearGradient id="g" x1="13.52" x2="32.76" xlink:href="#a" y1="23.3" y2="23.3"/><rect fill="url(#a)" height="72" rx="36" width="72"/><g fill="#fff" stroke-miterlimit="10"><path d="m32.54 19.33a.92.92 0 0 0 -1.38.3c-3.29 4-6.61 8-10 12.05 2.54 3.75 5.05 7.41 7.51 11.11a1.57 1.57 0 0 0 2.11.72q5.77-1.68 11.62-3.08c.86-.2 1.2-.52 1.35-1.31.78-4 1.6-8 2.36-12a1.11 1.11 0 0 0 -.42-.94c-4.35-2.33-8.76-4.57-13.15-6.85z" stroke="url(#b)"/><path d="m43 40.88c-3.82.95-7.62 1.92-11.42 2.94-.77.2-1.89.45-2.13 1-1.45 3.18-2.61 6.41-3.87 9.62.11.09.16.15.23.17 4.51 1.11 9 2.23 13.55 3.3a1.41 1.41 0 0 0 1-.33q3.52-2.58 7.04-5.13c1.58-1.17 3.13-2.37 4.81-3.64-2.79-2.69-5.47-5.28-8.21-7.81a1.26 1.26 0 0 0 -1-.12z" opacity=".5" stroke="url(#c)"/><path d="m57.68 38.18c-.29-1.28-.64-2.54-1-3.82-.67-2.73-1.31-5.46-2-8.18a1.14 1.14 0 0 0 -.87-.66c-2.05.22-4.09.56-6.14.8-.74.09-1 .44-1.11 1.14-.74 3.9-1.56 7.79-2.28 11.7a2.06 2.06 0 0 0 .37 1.6c2.55 2.56 5.18 5.05 7.78 7.55.09-.06.18-.09.21-.14 1.67-3 3.35-5.92 5-8.89a1.71 1.71 0 0 0 .04-1.1z" opacity=".75" stroke="url(#d)"/><path d="m28.49 43.25c-2.43-3.54-4.86-7.08-7.33-10.6a1.4 1.4 0 0 0 -1.06-.49c-1.9.21-3.79.5-5.86.79.13.88.21 1.62.34 2.36.62 3.55 1.21 7.11 1.9 10.65a3.8 3.8 0 0 0 1 1.88c1.39 1.34 2.89 2.59 4.37 3.85 1 .86 2 1.69 3.15 2.62 1.27-3.2 2.41-6.23 3.68-9.22a1.71 1.71 0 0 0 -.19-1.84z" stroke="url(#e)"/><path d="m32.69 18.83c3.83 1.92 7.63 3.91 11.44 5.86.86.44 1.78 1.16 2.65 1.12 2.37-.1 4.72-.52 7.26-.85a10.62 10.62 0 0 0 -.68-.83c-1.29-1.29-2.58-2.58-3.9-3.83-1.55-1.47-2.83-3.32-5.23-3.54a13.1 13.1 0 0 1 -1.76-.37l-9.66-2.31c-.27 1.25-.49 2.35-.73 3.45a1 1 0 0 0 .61 1.3z" stroke="url(#f)"/><path d="m19.7 31.58a2.12 2.12 0 0 0 1.68-.91q4.62-5.67 9.25-11.22c1.19-1.42 1.15-3.14 1.48-5a4.22 4.22 0 0 0 -.69.28l-7.1 4.88c-1.58 1.1-3.4 1.92-4.32 3.79a23.44 23.44 0 0 1 -1.29 2.09c-1.36 2.18-2.72 4.35-4.22 6.77 1-.11 1.71-.17 2.43-.27a26.8 26.8 0 0 1 2.78-.41z" stroke="url(#g)"/></g></svg>