<svg width="14" height="10" viewBox="0 0 14 10" fill="none" xmlns="http://www.w3.org/2000/svg">
<path d="M0.995965 5.40303C0.940447 5.34682 0.896996 5.27986 0.868279 5.20627C0.839562 5.13267 0.826192 5.05397 0.828973 4.97502C0.826192 4.89607 0.839562 4.81739 0.868279 4.74379C0.896996 4.67019 0.940447 4.60323 0.995965 4.54703L1.87597 3.69102C1.92668 3.63025 1.99037 3.58163 2.06237 3.54875C2.13437 3.51587 2.21282 3.49955 2.29195 3.50102C2.37442 3.50075 2.45606 3.51749 2.53176 3.55018C2.60747 3.58287 2.67561 3.63082 2.73196 3.69102L5.39398 6.35302L11.099 0.648023C11.1553 0.587817 11.2235 0.539875 11.2992 0.507184C11.3749 0.474494 11.4565 0.457755 11.539 0.458021C11.6179 0.456701 11.6962 0.473086 11.768 0.505964C11.8398 0.538842 11.9034 0.587382 11.954 0.648023L12.834 1.50403C12.8895 1.56023 12.9329 1.62719 12.9616 1.70079C12.9903 1.77439 13.0037 1.85307 13.001 1.93202C13.0037 2.01097 12.9903 2.08967 12.9616 2.16327C12.9329 2.23686 12.8895 2.30382 12.834 2.36003L5.82195 9.34903C5.76926 9.41057 5.7035 9.45956 5.62945 9.49243C5.5554 9.5253 5.47496 9.54123 5.39398 9.53903C5.31299 9.54123 5.23252 9.5253 5.15847 9.49243C5.08442 9.45956 5.01866 9.41057 4.96597 9.34903L0.995965 5.40303Z" fill="#46CBE5"/>
</svg>
