<svg width="17" height="14" viewBox="0 0 17 14" fill="none" xmlns="http://www.w3.org/2000/svg">
<path d="M14.9819 0H16.7409L9.59892 8.161C9.50928 8.26145 9.45883 8.39083 9.45681 8.52545C9.45479 8.66007 9.50133 8.7909 9.58792 8.894L13.7089 13.685H11.8699L8.06092 9.244L7.87092 9C7.78433 8.8969 7.73779 8.76607 7.73981 8.63145C7.74183 8.49683 7.79228 8.36745 7.88192 8.267L14.9819 0Z" fill="#F6F6F6"/>
<path d="M11.0149 8.89901C10.9582 8.83196 10.9181 8.75244 10.8979 8.66693C10.8778 8.58142 10.8781 8.49236 10.8989 8.40701C10.9367 8.30838 10.9923 8.21753 11.0629 8.13901L11.5379 7.61401L16.7859 13.685H15.1149C15.1149 13.685 12.0399 10.097 11.0149 8.89901Z" fill="#F6F6F6"/>
<path d="M1.833 13.685H0L5.621 7.176C5.70789 7.0758 5.75573 6.94763 5.75573 6.815C5.75573 6.68237 5.70789 6.5542 5.621 6.454L0.0420001 0H1.807L7.417 6.509C7.49124 6.60048 7.53308 6.71399 7.53598 6.83177C7.53887 6.94956 7.50266 7.06498 7.433 7.16C5.964 8.861 1.833 13.685 1.833 13.685Z" fill="#F6F6F6"/>
<path d="M4.90801 0H3.20801L8.40801 6.022C8.40801 6.022 8.42401 6.011 9.00801 5.327C9.04859 5.28968 9.08127 5.2446 9.10411 5.19442C9.12695 5.14425 9.13949 5.08999 9.14098 5.03488C9.14247 4.97977 9.13289 4.92492 9.11279 4.87358C9.0927 4.82224 9.06251 4.77546 9.02401 4.736C7.92901 3.615 4.90801 0 4.90801 0Z" fill="#F6F6F6"/>
<path d="M9.96502 4.2L13.577 0H11.87L9.98402 2.2L9.44002 2.834C9.35038 2.93445 9.29993 3.06383 9.29791 3.19845C9.29589 3.33307 9.34244 3.4639 9.42902 3.567C9.56502 3.725 9.96502 4.2 9.96502 4.2Z" fill="#F6F6F6"/>
<path d="M6.837 9.48401L3.229 13.684H4.935L6.821 11.484L7.367 10.851C7.45664 10.7506 7.50709 10.6212 7.50911 10.4866C7.51113 10.3519 7.46459 10.2211 7.378 10.118C7.238 9.96001 6.837 9.48401 6.837 9.48401Z" fill="#F6F6F6"/>
</svg>
