<svg width="251" height="43" viewBox="0 0 251 43" fill="none" xmlns="http://www.w3.org/2000/svg">
<path d="M247.559 8.55591H250.907L237.317 23.5169C237.147 23.6984 237.051 23.9366 237.047 24.185C237.044 24.4335 237.133 24.6744 237.297 24.8609L245.135 33.6399H241.635L234.387 25.4979L234.025 25.0569C233.861 24.8704 233.772 24.6295 233.776 24.381C233.779 24.1326 233.875 23.8944 234.045 23.7129L247.559 8.55591Z" fill="#24D1E9"/>
<path d="M240.011 24.8708C239.903 24.7502 239.827 24.6052 239.788 24.4484C239.75 24.2915 239.75 24.1276 239.789 23.9708C239.862 23.7894 239.968 23.623 240.102 23.4798L241.002 22.5168L250.984 33.6478H247.811C247.811 33.6478 241.961 27.0668 240.011 24.8708Z" fill="#24D1E9"/>
<path d="M222.541 33.6399H219.053L229.748 21.7069C229.913 21.5261 230.005 21.2899 230.005 21.0449C230.005 20.7999 229.913 20.5637 229.748 20.3829L219.133 8.55591H222.491L233.165 20.4889C233.305 20.6545 233.385 20.8631 233.39 21.0801C233.396 21.2971 233.327 21.5095 233.195 21.6819C230.402 24.8009 222.541 33.6399 222.541 33.6399Z" fill="#24D1E9"/>
<path d="M228.392 8.55591H225.165L235.056 19.5959C235.056 19.5959 235.086 19.5759 236.192 18.3219C236.269 18.255 236.331 18.1729 236.374 18.0808C236.418 17.9888 236.441 17.8887 236.444 17.787C236.447 17.6852 236.429 17.584 236.391 17.4897C236.352 17.3954 236.295 17.31 236.222 17.2389C234.141 15.1839 228.392 8.55591 228.392 8.55591Z" fill="#24D1E9"/>
<path d="M238.02 16.2569L244.885 8.55688H241.638L238.049 12.5879L237.013 13.7509C236.843 13.9324 236.747 14.1706 236.744 14.419C236.74 14.6675 236.829 14.9084 236.993 15.0949C237.256 15.3849 238.02 16.2569 238.02 16.2569Z" fill="#24D1E9"/>
<path d="M232.06 25.9438L225.195 33.6438H228.441L232.03 29.6128L233.066 28.4498C233.236 28.2684 233.332 28.0302 233.335 27.7817C233.339 27.5332 233.25 27.2923 233.086 27.1058C232.824 26.8158 232.06 25.9438 232.06 25.9438Z" fill="#24D1E9"/>
<path d="M59.8159 11.5178H62.5469C62.8143 11.5247 63.0774 11.5866 63.3198 11.6997C63.5622 11.8127 63.7787 11.9744 63.9559 12.1748L69.8129 19.4418L75.6709 12.1718C75.8386 11.9604 76.0532 11.7909 76.2978 11.6769C76.5424 11.5628 76.8102 11.5074 77.0799 11.5148H79.8109V30.0878H75.8029V17.8688L69.8129 25.3138L63.8229 17.8688V30.0878H59.8159V11.5178Z" fill="#FFFFFE"/>
<path d="M84.4348 11.518H87.1688C87.4362 11.5249 87.6993 11.5868 87.9417 11.6998C88.1841 11.8129 88.4006 11.9746 88.5778 12.175L94.4358 19.445L100.294 12.175C100.461 11.9636 100.676 11.7941 100.921 11.6801C101.165 11.566 101.433 11.5105 101.703 11.518H104.434V30.088H100.423V17.869L94.4328 25.314L88.4428 17.869V30.088H84.4348V11.518Z" fill="#FFFFFE"/>
<path d="M124.823 22.3799V11.5179H122.049C121.888 11.517 121.727 11.5479 121.578 11.609C121.428 11.67 121.293 11.76 121.178 11.8737C121.063 11.9874 120.972 12.1226 120.91 12.2716C120.848 12.4206 120.815 12.5804 120.815 12.7419V22.3769C120.848 22.9408 120.765 23.5055 120.572 24.0363C120.379 24.5671 120.079 25.0528 119.691 25.4637C119.304 25.8745 118.836 26.2019 118.317 26.4256C117.799 26.6493 117.24 26.7647 116.675 26.7647C116.11 26.7647 115.551 26.6493 115.032 26.4256C114.514 26.2019 114.046 25.8745 113.659 25.4637C113.271 25.0528 112.971 24.5671 112.778 24.0363C112.585 23.5055 112.502 22.9408 112.535 22.3769V12.7419C112.535 12.5804 112.503 12.4205 112.44 12.2714C112.378 12.1223 112.287 11.987 112.173 11.8731C112.058 11.7592 111.922 11.669 111.773 11.6077C111.624 11.5464 111.463 11.5152 111.302 11.5159H108.527V22.3799C108.442 24.0845 108.929 25.7685 109.911 27.1648C110.892 28.5612 112.312 29.5899 113.944 30.0879C115.726 30.6134 117.623 30.6134 119.405 30.0879C121.038 29.5901 122.457 28.5614 123.439 27.1651C124.42 25.7687 124.907 24.0846 124.823 22.3799Z" fill="#FFFFFE"/>
<path d="M142.22 15.2418V11.5178H127.554V15.2418H132.882V30.0878H136.89V15.2418H142.22Z" fill="#FFFFFE"/>
<path d="M148.783 12.657L142 30.088H146.274L147.859 25.84H155.082L156.669 30.088H160.941L154.203 12.657C154.075 12.3182 153.845 12.0272 153.546 11.8234C153.246 11.6196 152.891 11.513 152.529 11.518H150.503C150.136 11.5176 149.777 11.6254 149.471 11.828C149.165 12.0306 148.926 12.319 148.783 12.657ZM149.268 22.248L151.468 16.16H151.556L153.756 22.248H149.268Z" fill="#FFFFFE"/>
<path d="M178.335 24.7878C178.345 24.0974 178.195 23.4142 177.897 22.7913C177.599 22.1684 177.161 21.6227 176.618 21.1968C176.095 20.8056 175.515 20.4954 174.9 20.2768C175.362 20.0827 175.781 19.8001 176.134 19.4448C176.553 19.0641 176.885 18.5965 177.106 18.0746C177.326 17.5527 177.43 16.9891 177.411 16.4228C177.411 13.7518 175.165 11.5178 171.421 11.5178H163.538V30.0878H171.953C175.912 30.0878 178.335 27.6788 178.335 24.7878ZM167.5 14.9778H171.113C171.376 14.9412 171.644 14.9614 171.898 15.0371C172.153 15.1127 172.388 15.242 172.588 15.4163C172.789 15.5906 172.949 15.8057 173.059 16.0473C173.17 16.2889 173.227 16.5513 173.227 16.8168C173.223 17.0812 173.163 17.3418 173.052 17.5816C172.941 17.8213 172.78 18.035 172.581 18.2085C172.381 18.382 172.147 18.5116 171.894 18.5886C171.642 18.6657 171.375 18.6886 171.113 18.6558H167.5V14.9778ZM171.641 26.6278H167.5V22.1168H171.641C171.959 22.0756 172.282 22.1024 172.589 22.1957C172.897 22.2889 173.18 22.4464 173.422 22.6577C173.663 22.869 173.857 23.1292 173.99 23.4211C174.124 23.713 174.193 24.0299 174.195 24.3508C174.195 25.7518 173.27 26.6278 171.641 26.6278Z" fill="#FFFFFE"/>
<path d="M185.736 26.3649V12.7419C185.736 12.5803 185.704 12.4203 185.641 12.2712C185.579 12.122 185.488 11.9866 185.374 11.8727C185.259 11.7588 185.123 11.6687 184.973 11.6074C184.824 11.5462 184.664 11.5151 184.502 11.5159H181.728V30.0879H194.412V26.3649H185.736Z" fill="#FFFFFE"/>
<path d="M198.331 11.5178H210.977V15.2418H201.111V18.8318H208.862V22.4228H201.111V26.4078H211.241V30.1308H198.341C198.179 30.1316 198.019 30.1005 197.87 30.0392C197.72 29.978 197.584 29.8878 197.47 29.7739C197.355 29.66 197.264 29.5246 197.202 29.3755C197.14 29.2263 197.108 29.0664 197.108 28.9048V12.7418C197.116 12.42 197.248 12.1136 197.475 11.8859C197.703 11.6582 198.009 11.5264 198.331 11.5178Z" fill="#FFFFFE"/>
<path d="M51.579 16.7298L55.455 14.4958V11.5178H52.68C52.5187 11.5172 52.3588 11.5483 52.2095 11.6095C52.0602 11.6707 51.9244 11.7606 51.8099 11.8743C51.6954 11.988 51.6044 12.1231 51.5421 12.272C51.4799 12.4208 51.4475 12.5805 51.447 12.7418V16.8148L51.579 16.7298Z" fill="#FFFFFE"/>
<path d="M51.579 19.0508L51.447 19.1378V30.0868H55.455V16.8188L51.579 19.0508Z" fill="#FFFFFE"/>
<path d="M38.7639 12.2618V22.9048C38.7625 23.4736 38.611 24.032 38.3249 24.5236C38.0387 25.0153 37.6279 25.4227 37.1339 25.7048L21.7629 34.5538V29.9538L34.1389 22.8588C34.3278 22.7564 34.485 22.6044 34.5938 22.4192C34.7025 22.234 34.7586 22.0226 34.7559 21.8078V8.10181L37.1339 9.45981C37.6246 9.74617 38.0327 10.1548 38.3184 10.6459C38.604 11.137 38.7576 11.6937 38.7639 12.2618Z" fill="#FFFFFE"/>
<path d="M17.7539 37.402V42.002L2.38391 33.197C1.89308 32.9106 1.48491 32.5018 1.19923 32.0105C0.913546 31.5192 0.760114 30.9623 0.753906 30.394L0.753906 19.752C0.755348 19.1832 0.906803 18.6248 1.19299 18.1332C1.47917 17.6416 1.88996 17.2342 2.38391 16.952L13.2619 10.686L17.2699 13.007L5.37891 19.84C5.19001 19.9423 5.03268 20.0943 4.92393 20.2795C4.81518 20.4648 4.75915 20.6762 4.76191 20.891V29.212C4.75915 29.4268 4.81518 29.6383 4.92393 29.8235C5.03268 30.0088 5.19001 30.1608 5.37891 30.263L17.7539 37.402Z" fill="#FFFFFE"/>
<path d="M38.7639 27.635V30.394C38.7625 30.9628 38.611 31.5212 38.3249 32.0128C38.0387 32.5045 37.6279 32.9119 37.1339 33.194L21.7629 41.994V37.394L38.7639 27.635Z" fill="#FFFFFE"/>
<path d="M25.7699 10.4229V15.0229L13.8789 8.18989C13.6912 8.08235 13.4787 8.02578 13.2624 8.02578C13.0461 8.02578 12.8336 8.08235 12.6459 8.18989L0.753906 15.0219V12.2589C0.755348 11.6901 0.906803 11.1317 1.19299 10.6401C1.47917 10.1484 1.88996 9.74102 2.38391 9.45889L11.6329 4.15889C12.1304 3.87898 12.6916 3.73193 13.2624 3.73193C13.8332 3.73193 14.3944 3.87898 14.8919 4.15889L25.7699 10.4229Z" fill="#FFFFFE"/>
<path d="M17.7538 29.956V34.556L7.22681 28.511V21.591L11.2788 19.314V26.234L17.7538 29.956Z" fill="#FFFFFE"/>
<path d="M30.6589 5.73692C31.1529 6.01905 31.5637 6.42648 31.8499 6.91808C32.1361 7.40969 32.2875 7.96808 32.2889 8.53692V21.0649L28.2809 23.3419V9.72192C28.2837 9.50713 28.2277 9.29568 28.1189 9.11043C28.0102 8.92518 27.8528 8.7732 27.6639 8.67092L15.7729 1.83892L18.1509 0.438921C18.6484 0.159007 19.2096 0.0119629 19.7804 0.0119629C20.3513 0.0119629 20.9125 0.159007 21.4099 0.438921L30.6589 5.73692Z" fill="#FFFFFE"/>
</svg>
