<svg width="13" height="13" viewBox="0 0 13 13" fill="none" xmlns="http://www.w3.org/2000/svg">
<path d="M0.812019 1.42202C0.811621 1.34185 0.827147 1.26239 0.857674 1.18825C0.8882 1.11412 0.933139 1.04678 0.989876 0.990134C1.04661 0.93349 1.114 0.888703 1.18818 0.858298C1.26236 0.827893 1.3419 0.812479 1.42207 0.81301H4.26606L4.49506 0.330038C4.54549 0.228875 4.62482 0.14496 4.72303 0.0890106C4.82324 0.0298482 4.93766 -0.000907693 5.05402 2.13226e-05H7.94801C8.06406 -0.000927962 8.17818 0.0298358 8.27802 0.0890106C8.37672 0.144659 8.45649 0.228629 8.50703 0.330038L8.73603 0.81301H11.58C11.6601 0.812612 11.7395 0.828139 11.8135 0.858603C11.8876 0.889067 11.9549 0.93387 12.0115 0.9905C12.0682 1.04713 12.113 1.11443 12.1435 1.1885C12.174 1.26256 12.1894 1.34193 12.189 1.42202V2.13302C12.189 2.21258 12.1574 2.28891 12.1011 2.34518C12.0449 2.40144 11.9686 2.433 11.889 2.433H1.11604C1.03647 2.433 0.960138 2.40144 0.903877 2.34518C0.847616 2.28891 0.816048 2.21258 0.816048 2.13302L0.812019 1.42202ZM10.841 11.857C10.8351 12.011 10.7983 12.1622 10.7329 12.3017C10.6674 12.4411 10.5746 12.5661 10.46 12.669C10.2349 12.885 9.93396 13.0039 9.62202 13H3.37604C3.06414 13.0037 2.76324 12.8848 2.53803 12.669C2.4235 12.566 2.33077 12.4411 2.26533 12.3016C2.19989 12.1621 2.16309 12.011 2.15705 11.857L1.64906 3.58004C1.649 3.49555 1.68077 3.41412 1.73804 3.35201C1.76431 3.32028 1.79735 3.29485 1.83472 3.27755C1.8721 3.26024 1.91286 3.25153 1.95405 3.25204H11.044C11.0852 3.25146 11.126 3.26012 11.1634 3.27743C11.2008 3.29473 11.2338 3.32023 11.26 3.35201C11.3175 3.41401 11.3493 3.49551 11.349 3.58004L10.841 11.857Z" fill="#FF5207"/>
</svg>
