<svg width="168" height="167" viewBox="0 0 168 167" fill="none" xmlns="http://www.w3.org/2000/svg">
<path d="M159.643 84.138V60.748C159.631 56.9548 158.192 53.305 155.612 50.5244C153.032 47.7438 149.5 46.0361 145.718 45.741L123.997 7.80198C123.019 6.0834 121.709 4.57571 120.145 3.36601C118.581 2.15632 116.792 1.26859 114.883 0.754127C112.973 0.239661 110.981 0.108648 109.02 0.368658C107.06 0.628668 105.17 1.27455 103.461 2.26898L28.999 45.619H15.921C11.9092 45.6222 8.06266 47.217 5.22563 50.0535C2.3886 52.89 0.792974 56.7362 0.789001 60.748L0.789001 151.52C0.792973 155.531 2.38819 159.377 5.22457 162.213C8.06095 165.05 11.9068 166.645 15.918 166.649H144.514C148.525 166.645 152.371 165.05 155.207 162.213C158.044 159.377 159.639 155.531 159.643 151.52V128.131C161.849 127.354 163.76 125.913 165.115 124.006C166.469 122.099 167.2 119.82 167.207 117.481V94.788C167.2 92.4491 166.469 90.1698 165.115 88.2629C163.76 86.356 161.849 84.9151 159.643 84.138ZM136.929 45.619H103.963L128.689 31.225L136.929 45.619ZM124.929 24.66L88.929 45.619H73.997L121.197 18.139L124.929 24.66ZM107.269 8.80598C108.108 8.3123 109.037 7.99106 110.002 7.86107C110.966 7.73108 111.947 7.79497 112.887 8.04898C113.84 8.30298 114.732 8.74441 115.512 9.34744C116.292 9.95046 116.944 10.703 117.43 11.561L117.438 11.575L58.964 45.619H44.033L107.269 8.80598ZM152.079 151.52C152.076 153.525 151.279 155.448 149.861 156.866C148.443 158.284 146.52 159.081 144.515 159.084H15.921C13.9157 159.081 11.9933 158.284 10.5754 156.866C9.15742 155.448 8.35965 153.525 8.357 151.52V60.748C8.35965 58.7427 9.15742 56.8203 10.5754 55.4024C11.9933 53.9844 13.9157 53.1866 15.921 53.184H144.514C146.519 53.1866 148.442 53.9844 149.86 55.4024C151.278 56.8203 152.075 58.7427 152.078 60.748V83.441H129.389C123.37 83.441 117.598 85.8318 113.343 90.0876C109.087 94.3434 106.696 100.115 106.696 106.134C106.696 112.153 109.087 117.925 113.343 122.18C117.598 126.436 123.37 128.827 129.389 128.827H152.082V151.52H152.079ZM159.644 117.481C159.643 118.484 159.244 119.445 158.535 120.154C157.826 120.863 156.865 121.262 155.862 121.263H129.389C125.398 121.231 121.581 119.622 118.771 116.789C115.96 113.955 114.383 110.126 114.383 106.134C114.383 102.143 115.96 98.3139 118.771 95.4802C121.581 92.6466 125.398 91.0384 129.389 91.006H155.864C156.867 91.0068 157.828 91.4055 158.537 92.1146C159.246 92.8237 159.645 93.7852 159.646 94.788L159.644 117.481Z" fill="url(#paint0_linear)"/>
<defs>
<linearGradient id="paint0_linear" x1="0.789001" y1="166.649" x2="83.998" y2="166.649" gradientUnits="userSpaceOnUse">
<stop stop-color="#0590C3"/>
<stop offset="1" stop-color="#46CBE5"/>
</linearGradient>
</defs>
</svg>
